<svg width="34" height="30" viewBox="0 0 34 30"  xmlns="http://www.w3.org/2000/svg">
<path d="M21.3116 14.6446C21.0708 14.6446 20.8472 14.5784 20.6486 14.4719V14.4748C20.6486 14.8536 20.5014 15.2094 20.2342 15.4758C19.967 15.743 19.6115 15.8903 19.2331 15.8903C18.9888 15.8903 18.7624 15.8224 18.5617 15.7131C18.5414 16.0597 18.4029 16.3836 18.1557 16.631C17.8886 16.8982 17.5331 17.0454 17.1544 17.0454C16.4021 17.0454 15.7912 16.4541 15.7472 15.7129C15.5144 15.8387 15.2513 15.9046 14.9798 15.8872C14.2398 15.8387 13.6602 15.1993 13.6602 14.4312V8.06453L12.9353 9.32049C12.6592 9.80087 12.1423 10.0991 11.5858 10.0991C11.3146 10.0991 11.0467 10.028 10.8095 9.89204C10.514 9.72076 10.3027 9.44582 10.2148 9.1169C10.1265 8.78777 10.1722 8.44356 10.343 8.14857C10.3432 8.14857 12.715 4.04137 12.8597 3.78908C12.8769 3.75115 12.9259 3.64113 12.9676 3.54736C13.0074 3.45783 13.0416 3.36595 13.0743 3.27359C13.7896 1.25431 15.5606 -1.90735e-05 17.6965 -1.90735e-05C20.4702 -1.90735e-05 22.7268 2.44688 22.7268 5.45457L22.727 13.2289C22.727 13.6073 22.58 13.9628 22.313 14.2302C22.0459 14.4974 21.6904 14.6447 21.3115 14.6447L21.3116 14.6446ZM17.6965 0.752123C15.8612 0.752123 14.3984 1.78878 13.7833 3.52514C13.7439 3.6354 13.7029 3.74565 13.6551 3.85309C13.5163 4.16432 13.5163 4.16432 13.4772 4.20907L13.472 4.2046C13.2784 4.57001 12.703 5.56635 10.9942 8.525C10.924 8.64633 10.9054 8.78723 10.9412 8.92198C10.9775 9.05675 11.0645 9.1703 11.1849 9.2398C11.5585 9.45443 12.0702 9.3159 12.2832 8.94484L13.7107 6.47339C13.796 6.32614 13.9684 6.25381 14.1338 6.29858C14.2983 6.34263 14.4125 6.49177 14.4125 6.66187V14.4314C14.4125 14.798 14.6891 15.1144 15.0291 15.1368C15.2251 15.1471 15.408 15.0814 15.5453 14.9443C15.6702 14.8194 15.739 14.6531 15.739 14.4752V9.39383C15.739 9.18603 15.9074 9.01757 16.1152 9.01757C16.323 9.01757 16.4915 9.18579 16.4915 9.39383L16.4912 15.6302C16.4912 15.9958 16.7888 16.2934 17.1544 16.2934C17.3321 16.2934 17.4989 16.2246 17.624 16.0997C17.7489 15.9746 17.8177 15.8078 17.8177 15.6302V9.39382C17.8177 9.18602 17.9859 9.01757 18.1939 9.01757C18.4017 9.01757 18.5702 9.18579 18.5702 9.39382L18.5699 14.4168V14.4752C18.5699 14.8406 18.8675 15.1381 19.2334 15.1381C19.4108 15.1381 19.5771 15.0691 19.7029 14.9438C19.8278 14.8191 19.8966 14.6528 19.8966 14.4749V9.39356C19.8966 9.18576 20.0648 9.01731 20.2728 9.01731C20.4806 9.01731 20.6491 9.18552 20.6491 9.39356L20.6486 13.2291C20.6486 13.595 20.9462 13.8925 21.3116 13.8925C21.4894 13.8925 21.6558 13.8235 21.7806 13.6989C21.906 13.5736 21.9745 13.4067 21.9745 13.2291L21.9748 5.45475C21.9748 2.86201 20.0556 0.752201 17.6965 0.752201L17.6965 0.752123Z" fill="#103E13"/>
<path d="M6.52904 20.0481L11.9888 16.7728C12.647 16.3774 13.494 16.5454 13.9162 17.1554C14.0703 17.3776 14.149 17.6365 14.1612 17.9001C14.3648 17.7939 14.5862 17.7362 14.8117 17.7362C14.9271 17.7362 15.043 17.7505 15.1575 17.779C15.5244 17.8707 15.8335 18.0999 16.0279 18.4241C16.2225 18.7487 16.2792 19.1292 16.1876 19.4956C16.103 19.8346 15.8969 20.12 15.6101 20.3157C15.8106 20.434 15.9836 20.5954 16.1065 20.8008C16.3012 21.1255 16.3579 21.5058 16.2665 21.8726C16.1749 22.239 15.9456 22.548 15.621 22.7429L15.6191 22.7441C15.8161 22.8621 15.9859 23.0219 16.1075 23.2242C16.3023 23.5489 16.3591 23.9294 16.2675 24.2962C16.1756 24.6628 15.9463 24.9719 15.6222 25.1665L8.95577 29.1658C7.71157 29.9119 6.27323 30.1695 4.9063 29.8903C3.52712 29.6085 2.38491 28.8157 1.6904 27.658C0.591318 25.8262 0.756033 23.662 2.11943 22.0102C2.18186 21.9348 2.24335 21.858 2.29919 21.7784C2.35833 21.6943 2.42736 21.5953 2.45091 21.5614C2.59203 21.3093 4.8948 17.1604 4.89456 17.1609C5.1271 16.7413 5.56295 16.5038 6.01246 16.504C6.22214 16.504 6.43489 16.5556 6.63115 16.6645C6.86816 16.7969 7.06725 16.9898 7.20648 17.2223C7.49274 17.6994 7.50287 18.2965 7.23334 18.7796L6.52904 20.0481ZM6.56179 17.6091C6.48875 17.4873 6.38839 17.3903 6.26564 17.3215C6.0119 17.1811 5.69243 17.2725 5.55274 17.5253C3.90499 20.4938 3.34329 21.5054 3.12652 21.8654L3.13147 21.8666C3.11333 21.9269 3.11333 21.9269 2.91496 22.2104C2.84758 22.3062 2.77431 22.3984 2.69962 22.4891C1.52726 23.9095 1.39113 25.697 2.33515 27.271C2.91991 28.2459 3.88634 28.9143 5.05654 29.1532C6.23946 29.3937 7.48625 29.1699 8.56839 28.5206L15.2354 24.5211C15.3876 24.43 15.495 24.2851 15.5379 24.1133C15.5808 23.9418 15.5542 23.7635 15.4627 23.6113C15.2747 23.2979 14.8664 23.195 14.5531 23.3837L11.2642 25.3568C11.0861 25.4638 10.8547 25.4063 10.748 25.228C10.641 25.0498 10.6987 24.8187 10.8768 24.7118L14.166 22.7386L15.2342 22.0978C15.3864 22.0064 15.4941 21.8615 15.537 21.6902C15.5798 21.5185 15.5532 21.3399 15.4618 21.1879C15.2736 20.8743 14.8653 20.7723 14.5522 20.9603L10.1948 23.5743C10.0162 23.6815 9.78555 23.6235 9.67859 23.4454C9.57163 23.2673 9.62959 23.0362 9.80746 22.9292L15.1553 19.7211C15.3075 19.6297 15.4149 19.485 15.4578 19.3133C15.5007 19.1418 15.4741 18.9634 15.3829 18.8112C15.2917 18.6593 15.1468 18.5518 14.9751 18.509C14.8024 18.4661 14.6247 18.4927 14.473 18.5837L13.483 19.1776C13.4833 19.1776 13.4828 19.1776 13.483 19.1776L9.12519 21.7918C8.94661 21.8992 8.71572 21.8413 8.60899 21.6629C8.50203 21.4848 8.55999 21.2537 8.73786 21.1467L13.0952 18.5328C13.2474 18.4414 13.3551 18.2965 13.398 18.1252C13.4451 17.9372 13.4093 17.7449 13.2976 17.5838C13.104 17.3037 12.6898 17.2292 12.3757 17.4179L5.71355 21.4146C5.56771 21.5018 5.38089 21.4806 5.25861 21.3626C5.1361 21.2443 5.10853 21.0584 5.19099 20.9097L6.57632 18.4138C6.71533 18.1643 6.70998 17.856 6.56179 17.6091Z" fill="#103E13"/>
<path d="M32.618 27.6577C31.9237 28.8157 30.7818 29.6083 29.4024 29.8901C28.0352 30.1688 26.5974 29.9117 25.3529 29.1656L18.6859 25.1661C18.3615 24.9715 18.132 24.6624 18.0401 24.2953C17.949 23.9289 18.006 23.5484 18.2003 23.2243C18.3217 23.0216 18.4918 22.8619 18.689 22.7439L18.6871 22.7427C18.3627 22.5481 18.1332 22.239 18.0418 21.8724C17.9499 21.5058 18.0069 21.125 18.2015 20.8004C18.3269 20.5919 18.4986 20.4289 18.6946 20.3132C18.41 20.1174 18.2051 19.8331 18.1207 19.4957C18.0288 19.1288 18.0859 18.7483 18.2805 18.4242C18.4748 18.0997 18.7842 17.8705 19.1508 17.7789C19.2653 17.7501 19.3814 17.736 19.4964 17.736C19.7221 17.7362 19.9436 17.7935 20.1471 17.9C20.1596 17.6363 20.2381 17.3774 20.3921 17.1552C20.8146 16.5458 21.6608 16.3771 22.32 16.7726L27.7796 20.0474L27.0758 18.7799C26.8059 18.296 26.8157 17.699 27.102 17.2216C27.2415 16.9893 27.4408 16.7964 27.679 16.6628C27.8748 16.5544 28.0868 16.5031 28.296 16.5031C28.7453 16.5033 29.1816 16.7403 29.4139 17.1599C30.2234 18.6185 31.751 21.3694 31.8584 21.5614C31.8813 21.5946 31.9503 21.6936 32.0094 21.7777C32.0658 21.8575 32.1265 21.9339 32.1894 22.0097C33.5526 23.6622 33.7171 25.8262 32.618 27.6578L32.618 27.6577ZM31.609 22.4892C31.5341 22.3985 31.4606 22.3059 31.3937 22.2105C31.1901 21.9217 31.1849 21.9141 31.1696 21.8385C30.9317 21.4448 30.3512 20.3997 28.7555 17.5249C28.6155 17.2726 28.2975 17.1805 28.0442 17.3204C27.9196 17.3901 27.8194 17.4874 27.7464 17.6093C27.5984 17.8559 27.5928 18.1641 27.7325 18.4143L29.1173 20.9095C29.2 21.0584 29.1725 21.2441 29.0502 21.3623C28.9282 21.4808 28.7416 21.5016 28.595 21.4144L21.9328 17.4177C21.6188 17.2295 21.2049 17.3032 21.0107 17.5836C20.899 17.7447 20.8635 17.937 20.9101 18.1247C20.953 18.2963 21.0607 18.4409 21.2131 18.5323C21.2136 18.5326 21.2138 18.533 21.2143 18.5333L25.5703 21.1465C25.7484 21.2535 25.8061 21.4844 25.6991 21.6627C25.5922 21.8406 25.3615 21.8988 25.1829 21.7916L19.8351 18.5835C19.6834 18.4925 19.5048 18.4657 19.3333 18.5088C19.1613 18.5517 19.0166 18.6591 18.9255 18.8115C18.834 18.9635 18.8077 19.1418 18.8501 19.3133C18.8929 19.4849 19.0006 19.6297 19.1528 19.7212L20.1934 20.3453L24.5004 22.9293C24.6785 23.0363 24.7362 23.2672 24.6293 23.4455C24.5223 23.6234 24.2917 23.6814 24.1131 23.5744L19.7562 20.9604C19.4428 20.7719 19.0348 20.8742 18.8463 21.188C18.7549 21.3402 18.7285 21.5186 18.7709 21.6901C18.8138 21.8616 18.9215 22.0062 19.0739 22.0979L20.1421 22.7387L23.4308 24.7119C23.6089 24.8188 23.6666 25.0497 23.5597 25.2281C23.4527 25.4059 23.222 25.4644 23.0435 25.3569L19.7548 23.3838C19.603 23.2928 19.4252 23.266 19.2527 23.3091C19.0812 23.352 18.9361 23.4594 18.8449 23.6114C18.7537 23.7636 18.7271 23.9421 18.7695 24.1134C18.8124 24.2849 18.92 24.4296 19.0725 24.5212L25.7395 28.5207C26.8214 29.1698 28.0691 29.3945 29.2513 29.1533C30.4213 28.9144 31.3877 28.246 31.9725 27.2711C32.9175 25.6968 32.7815 23.9091 31.6094 22.4892L31.609 22.4892Z" fill="#103E13"/>
</svg>
