<svg width="36" height="31" viewBox="0 0 36 31" fill="none" xmlns="http://www.w3.org/2000/svg">
<path d="M20.9164 10.0109C20.6044 10.0109 20.3507 9.75769 20.3507 9.44527V8.48395C20.3507 8.17193 20.604 7.91827 20.9164 7.91827C21.2284 7.91827 21.4821 8.17152 21.4821 8.48395V9.44527C21.4821 9.75769 21.2284 10.0109 20.9164 10.0109Z" fill="#103E13"/>
<path d="M18.5381 10.0109C18.2261 10.0109 17.9724 9.75769 17.9724 9.44527V8.48395C17.9724 8.17193 18.2257 7.91827 18.5381 7.91827C18.8501 7.91827 19.1038 8.17152 19.1038 8.48395V9.44527C19.1034 9.75769 18.8505 10.0109 18.5381 10.0109Z" fill="#103E13"/>
<path d="M16.16 10.0109C15.848 10.0109 15.5944 9.75769 15.5944 9.44527V8.48395C15.5944 8.17193 15.8476 7.91827 16.16 7.91827C16.4721 7.91827 16.7257 8.17152 16.7257 8.48395V9.44527C16.7257 9.75769 16.4725 10.0109 16.16 10.0109Z" fill="#103E13"/>
<path d="M20.9164 13.9421C20.6044 13.9421 20.3507 13.6889 20.3507 13.3765V12.4155C20.3507 12.1035 20.604 11.8499 20.9164 11.8499C21.2284 11.8499 21.4821 12.1031 21.4821 12.4155V13.3765C21.4821 13.6889 21.2284 13.9421 20.9164 13.9421Z" fill="#103E13"/>
<path d="M18.5381 13.9421C18.2261 13.9421 17.9724 13.6889 17.9724 13.3765V12.4155C17.9724 12.1035 18.2257 11.8499 18.5381 11.8499C18.8501 11.8499 19.1038 12.1031 19.1038 12.4155V13.3765C19.1034 13.6889 18.8505 13.9421 18.5381 13.9421Z" fill="#103E13"/>
<path d="M16.16 13.9421C15.848 13.9421 15.5944 13.6889 15.5944 13.3765V12.4155C15.5944 12.1035 15.8476 11.8499 16.16 11.8499C16.4721 11.8499 16.7257 12.1031 16.7257 12.4155V13.3765C16.7257 13.6889 16.4725 13.9421 16.16 13.9421Z" fill="#103E13"/>
<path d="M20.9164 17.8734C20.6044 17.8734 20.3507 17.6201 20.3507 17.3077V16.3464C20.3507 16.0344 20.604 15.7807 20.9164 15.7807C21.2284 15.7807 21.4821 16.0339 21.4821 16.3464V17.3077C21.4821 17.6201 21.2284 17.8734 20.9164 17.8734Z" fill="#103E13"/>
<path d="M18.5381 17.8734C18.2261 17.8734 17.9724 17.6201 17.9724 17.3077V16.3464C17.9724 16.0344 18.2257 15.7807 18.5381 15.7807C18.8501 15.7807 19.1038 16.0339 19.1038 16.3464V17.3077C19.1034 17.6201 18.8505 17.8734 18.5381 17.8734Z" fill="#103E13"/>
<path d="M16.16 17.8734C15.848 17.8734 15.5944 17.6201 15.5944 17.3077V16.3464C15.5944 16.0344 15.8476 15.7807 16.16 15.7807C16.4721 15.7807 16.7257 16.0339 16.7257 16.3464V17.3077C16.7257 17.6201 16.4725 17.8734 16.16 17.8734Z" fill="#103E13"/>
<path d="M20.9164 21.8039C20.6044 21.8039 20.3507 21.5506 20.3507 21.2382V20.2769C20.3507 19.9648 20.604 19.7112 20.9164 19.7112C21.2284 19.7112 21.4821 19.9644 21.4821 20.2769V21.2382C21.4821 21.5506 21.2284 21.8039 20.9164 21.8039Z" fill="#103E13"/>
<path d="M18.5381 21.8039C18.2261 21.8039 17.9724 21.5506 17.9724 21.2382V20.2769C17.9724 19.9648 18.2257 19.7112 18.5381 19.7112C18.8501 19.7112 19.1038 19.9644 19.1038 20.2769V21.2382C19.1034 21.5506 18.8505 21.8039 18.5381 21.8039Z" fill="#103E13"/>
<path d="M16.16 21.8039C15.848 21.8039 15.5944 21.5506 15.5944 21.2382V20.2769C15.5944 19.9648 15.8476 19.7112 16.16 19.7112C16.4721 19.7112 16.7257 19.9644 16.7257 20.2769V21.2382C16.7257 21.5506 16.4725 21.8039 16.16 21.8039Z" fill="#103E13"/>
<path d="M20.9164 25.735C20.6044 25.735 20.3507 25.4818 20.3507 25.1694V24.2084C20.3507 23.8964 20.604 23.6428 20.9164 23.6428C21.2284 23.6428 21.4821 23.896 21.4821 24.2084V25.1694C21.4821 25.4814 21.2284 25.735 20.9164 25.735Z" fill="#103E13"/>
<path d="M18.5381 25.735C18.2261 25.735 17.9724 25.4818 17.9724 25.1694V24.2084C17.9724 23.8964 18.2257 23.6428 18.5381 23.6428C18.8501 23.6428 19.1038 23.896 19.1038 24.2084V25.1694C19.1034 25.4814 18.8505 25.735 18.5381 25.735Z" fill="#103E13"/>
<path d="M16.16 25.735C15.848 25.735 15.5944 25.4818 15.5944 25.1694L15.5948 24.2084C15.5948 23.8964 15.848 23.6428 16.1604 23.6428C16.4725 23.6428 16.7261 23.896 16.7261 24.2084V25.1694C16.7257 25.4814 16.4725 25.735 16.16 25.735Z" fill="#103E13"/>
<path d="M0.000474596 29.6472C0.000474596 29.9592 0.253724 30.2129 0.566149 30.2129H35.0139C35.3259 30.2129 35.5796 29.9596 35.5796 29.6472C35.5796 29.3352 35.3263 29.0815 35.0139 29.0815H33.9682V12.8402C33.9682 12.5282 33.715 12.2746 33.4025 12.2746L24.1668 12.2749V0.565823C24.1668 0.367803 24.0635 0.18477 23.8946 0.0822C23.7262 -0.0207535 23.5156 -0.0270647 23.3404 0.0640544L12.8401 5.53104C12.6527 5.62847 12.5359 5.82176 12.5359 6.03281V16.2605H2.37388C2.06186 16.2605 1.8082 16.5137 1.8082 16.8262V29.0816H0.564887C0.252866 29.0812 0 29.3345 0 29.6469L0.000474596 29.6472ZM24.167 20.8423H32.8374V29.082L24.167 29.0816V20.8423ZM24.167 16.9114H32.8374V19.7114L24.167 19.711V16.9114ZM24.167 13.4057H32.8374V15.7809H24.167V13.4057ZM13.6667 6.37629L23.0353 1.49824V29.0811H13.6667V6.37629ZM5.73588 24.5636C5.73588 23.3896 6.66603 22.4342 7.80959 22.4342C8.95314 22.4342 9.88371 23.3892 9.88371 24.5636V29.0818H5.73588V24.5636ZM2.93952 17.3916H12.5358V29.0816H11.015V24.5634C11.015 22.7657 9.57762 21.3031 7.80959 21.3031C6.04236 21.3031 4.60495 22.7653 4.60495 24.5634V29.0816H2.93952V17.3916Z" fill="#103E13"/>
</svg>
