<svg width="539" height="501" viewBox="0 0 539 501" fill="none" xmlns="http://www.w3.org/2000/svg">
<path d="M78.8513 462.484C183.994 512.591 354.456 512.607 459.599 462.484C564.741 412.362 564.726 331.128 459.599 281.021C354.471 230.914 183.994 230.914 78.8513 281.021C-26.2914 331.128 -26.2761 412.377 78.8513 462.484Z" fill="#E9ECEF"/>
<path d="M459.233 425.453C478.597 425.453 494.295 417.973 494.295 408.746C494.295 399.518 478.597 392.038 459.233 392.038C439.868 392.038 424.17 399.518 424.17 408.746C424.17 417.973 439.868 425.453 459.233 425.453Z" fill="#E9ECEF"/>
<path d="M70.8713 411.141L83.2761 403.985C90.202 398.333 95.4734 390.916 98.534 382.517C102.364 371.959 101.83 363.933 99.0833 359.905C95.7113 354.946 86.9685 355.816 86.6176 366.252C85.8852 386.82 79.8888 401.086 70.8713 411.141Z" fill="#0D6EFD"/>
<path opacity="0.2" d="M70.8713 411.141L83.2761 403.985C90.202 398.333 95.4734 390.916 98.534 382.517C102.364 371.959 101.83 363.933 99.0833 359.905C95.7113 354.946 86.9685 355.816 86.6176 366.252C85.8852 386.82 79.8888 401.086 70.8713 411.141Z" fill="#212529"/>
<path d="M70.8712 411.904C70.7097 411.902 70.5529 411.849 70.4236 411.752C70.2942 411.655 70.1989 411.52 70.1514 411.366C70.1039 411.211 70.1066 411.046 70.1592 410.893C70.2118 410.74 70.3115 410.608 70.444 410.516C99.129 390.68 93.5751 363.018 93.514 362.743C93.493 362.643 93.4919 362.539 93.5108 362.439C93.5297 362.338 93.5683 362.242 93.6242 362.157C93.6802 362.071 93.7525 361.997 93.837 361.939C93.9215 361.881 94.0166 361.841 94.1167 361.82C94.2169 361.799 94.3203 361.798 94.4209 361.817C94.5215 361.836 94.6174 361.874 94.7031 361.93C94.7888 361.986 94.8627 362.058 94.9205 362.143C94.9783 362.227 95.0188 362.322 95.0398 362.423C95.0398 362.712 100.899 391.321 71.3595 411.767C71.2161 411.865 71.0446 411.913 70.8712 411.904Z" fill="white"/>
<path d="M46.016 425.499C46.016 425.499 41.698 421.99 42.7356 417.229C43.7731 412.469 46.5653 409.051 41.7896 402.917C37.0138 396.783 35.6864 388.605 41.3929 384.18C45.7414 380.747 52.5312 385.599 54.9725 376.551C56.7729 369.929 56.1626 355.266 64.6002 350.384C73.0379 345.501 78.3324 352.856 77.0049 362.804C75.8453 371.699 74.1975 380.259 75.4792 382.639C77.9509 387.217 82.1774 386.591 81.979 394.952C81.8112 402.734 74.4416 409.173 74.4416 409.173L46.016 425.499Z" fill="#0D6EFD"/>
<path d="M60.1906 418.038C60.0041 418.036 59.8245 417.967 59.6844 417.844C59.5444 417.721 59.4533 417.551 59.4277 417.366C57.2458 399.286 62.4793 368.068 66.7515 358.791C66.7875 358.688 66.8451 358.594 66.9205 358.515C66.9958 358.437 67.0872 358.375 67.1884 358.334C67.2896 358.294 67.3983 358.276 67.5072 358.281C67.616 358.286 67.7226 358.314 67.8196 358.364C67.9107 358.405 67.9926 358.464 68.0606 358.537C68.1285 358.61 68.1811 358.696 68.2153 358.79C68.2494 358.884 68.2644 358.984 68.2593 359.083C68.2542 359.183 68.2292 359.281 68.1858 359.371C63.9593 368.526 58.9089 399.835 60.9993 417.122C61.0207 417.322 60.9622 417.523 60.8364 417.68C60.7107 417.837 60.5279 417.938 60.3279 417.961L60.1906 418.038Z" fill="white"/>
<path d="M59.7787 403.955C59.6619 403.96 59.5459 403.934 59.443 403.878C54.1485 401.3 50.7918 392.099 50.6544 391.672C50.617 391.577 50.5991 391.476 50.6015 391.374C50.604 391.272 50.627 391.171 50.6689 391.078C50.7109 390.985 50.7711 390.902 50.846 390.833C50.9208 390.763 51.0088 390.71 51.1047 390.675C51.2006 390.64 51.3025 390.625 51.4044 390.631C51.5063 390.636 51.606 390.662 51.6978 390.706C51.7895 390.751 51.8714 390.813 51.9385 390.89C52.0057 390.967 52.0567 391.056 52.0887 391.153C52.0887 391.245 55.3691 400.156 60.1144 402.459C60.27 402.535 60.3955 402.661 60.4701 402.817C60.5447 402.973 60.5641 403.15 60.5251 403.318C60.486 403.487 60.3909 403.637 60.2553 403.744C60.1197 403.852 59.9517 403.91 59.7787 403.909V403.955Z" fill="white"/>
<path d="M59.6873 410.058C59.5344 410.058 59.3851 410.011 59.2596 409.924C59.1342 409.837 59.0384 409.713 58.9854 409.57C58.9095 409.383 58.9102 409.175 58.9873 408.989C59.0645 408.803 59.2118 408.656 59.3974 408.578C68.308 405.008 73.8619 394.403 73.923 394.281C74.016 394.101 74.1768 393.965 74.37 393.904C74.5631 393.842 74.7728 393.86 74.9529 393.953C75.1329 394.046 75.2687 394.207 75.3302 394.4C75.3917 394.593 75.374 394.803 75.2809 394.983C75.0368 395.441 69.4066 406.213 60.0229 409.997C59.9184 410.046 59.8026 410.068 59.6873 410.058Z" fill="white"/>
<path d="M371.148 327.97C371.148 327.97 364.48 317.167 363.824 305.434C363.168 293.701 365.747 288.818 369.287 287.414C372.826 286.011 373.101 290.329 374.917 292.877C376.732 295.425 380.44 293.975 381.813 286.026C383.187 278.076 388.191 264.665 398.597 262.056C410.041 259.218 403.907 272.645 401.023 277.878C398.139 283.112 395.912 290.252 397.804 292.19C399.696 294.128 402.64 290.542 405.433 293.868C408.835 297.881 398.261 312.331 392.189 315.825L371.148 327.97Z" fill="#0D6EFD"/>
<path d="M380.287 323.438C380.187 323.435 380.089 323.411 379.998 323.369C379.907 323.327 379.825 323.267 379.757 323.194C379.689 323.12 379.636 323.034 379.601 322.939C379.567 322.845 379.551 322.745 379.555 322.645C380.588 303.77 386.474 285.482 396.644 269.547C396.702 269.464 396.775 269.394 396.861 269.34C396.947 269.286 397.042 269.251 397.142 269.235C397.242 269.219 397.344 269.224 397.442 269.249C397.54 269.274 397.632 269.318 397.712 269.379C397.872 269.498 397.979 269.675 398.01 269.872C398.042 270.068 397.995 270.27 397.88 270.432C387.892 286.133 382.112 304.14 381.096 322.721C381.09 322.822 381.065 322.92 381.021 323.01C380.977 323.1 380.916 323.181 380.841 323.248C380.766 323.314 380.678 323.366 380.583 323.398C380.488 323.431 380.388 323.445 380.287 323.438Z" fill="white"/>
<path d="M381.157 314.421C381.03 314.42 380.904 314.388 380.791 314.329C376.519 311.964 374.154 304.946 374.062 304.656C374.029 304.561 374.014 304.46 374.02 304.359C374.025 304.258 374.051 304.16 374.095 304.069C374.139 303.978 374.2 303.897 374.276 303.83C374.352 303.763 374.44 303.712 374.535 303.679C374.727 303.617 374.937 303.633 375.117 303.725C375.297 303.816 375.434 303.975 375.496 304.168C375.496 304.168 377.785 310.927 381.6 312.987C381.773 313.089 381.899 313.254 381.953 313.447C382.007 313.641 381.984 313.847 381.89 314.024C381.821 314.156 381.714 314.263 381.584 314.334C381.453 314.405 381.305 314.435 381.157 314.421Z" fill="white"/>
<path d="M381.905 309.798C381.736 309.796 381.572 309.738 381.44 309.633C381.307 309.528 381.213 309.382 381.173 309.218C381.148 309.122 381.142 309.022 381.156 308.923C381.17 308.825 381.204 308.73 381.255 308.645C381.306 308.56 381.374 308.485 381.454 308.427C381.534 308.368 381.625 308.326 381.722 308.302C392.738 305.51 396.553 299.743 396.583 299.682C396.637 299.597 396.708 299.523 396.79 299.465C396.873 299.407 396.966 299.366 397.064 299.344C397.163 299.322 397.265 299.32 397.364 299.337C397.463 299.354 397.558 299.391 397.644 299.445C397.729 299.499 397.802 299.57 397.86 299.652C397.918 299.735 397.959 299.828 397.981 299.926C398.003 300.025 398.006 300.127 397.988 300.226C397.971 300.326 397.934 300.42 397.88 300.506C397.712 300.765 393.745 306.822 382.103 309.783L381.905 309.798Z" fill="white"/>
<path d="M205.141 304.259C205.141 304.259 190.509 300.689 189.746 273.285C188.937 243.716 193.332 209.202 176.014 206.41C158.696 203.618 149.084 224.719 149.297 249.361C149.496 270.936 158.193 317.778 205.08 326.963L205.141 304.259Z" fill="#0D6EFD"/>
<path opacity="0.2" d="M205.141 304.259C205.141 304.259 190.509 300.689 189.746 273.285C188.937 243.716 193.332 209.202 176.014 206.41C158.696 203.618 149.084 224.719 149.297 249.361C149.496 270.936 158.193 317.778 205.08 326.963L205.141 304.259Z" fill="#212529"/>
<path d="M205.141 324.155H205.004C194.461 322.233 185.871 316.42 179.477 306.899C160.527 278.626 166.493 225.833 168.461 216.617C168.505 216.421 168.624 216.249 168.791 216.138C168.959 216.027 169.164 215.986 169.361 216.022C169.559 216.07 169.731 216.191 169.841 216.361C169.952 216.532 169.993 216.738 169.956 216.938C168.019 226.093 162.083 278.214 180.744 306.044C183.46 310.36 187.044 314.064 191.267 316.922C195.491 319.78 200.262 321.729 205.279 322.645C205.378 322.663 205.473 322.701 205.558 322.756C205.643 322.812 205.716 322.883 205.772 322.967C205.829 323.051 205.869 323.145 205.889 323.244C205.909 323.344 205.909 323.446 205.889 323.545C205.857 323.719 205.764 323.875 205.627 323.987C205.49 324.099 205.318 324.158 205.141 324.155Z" fill="white"/>
<path d="M205.141 394.479C190.021 396.524 165.471 396.494 151.296 385.325C137.121 374.156 140.081 364.543 145.528 360.531C150.975 356.518 155.705 351.94 146.337 343.03C136.969 334.119 121.924 319.807 117.042 298.339C112.159 276.871 114.57 263.444 124.152 258.973C133.444 254.64 135.901 261.537 141.592 275.757C147.283 289.978 160.085 277.787 171.04 282.227C181.995 286.667 181.552 295.455 182.239 303.008C182.926 310.561 186.542 312.651 192.752 312.651C198.962 312.651 205.141 316.221 205.141 323.332V394.479Z" fill="#0D6EFD"/>
<path d="M205.141 369.548C205.076 369.562 205.008 369.562 204.943 369.548C204.287 369.365 188.648 364.818 165.867 343.899C141.607 321.623 130.164 288.208 130.042 287.872C129.983 287.68 130.001 287.472 130.092 287.293C130.183 287.114 130.34 286.977 130.53 286.911C130.72 286.848 130.928 286.862 131.108 286.95C131.287 287.039 131.425 287.195 131.491 287.384C131.598 287.72 142.935 320.768 166.905 342.77C189.365 363.414 205.187 368.037 205.355 368.083C205.451 368.111 205.541 368.158 205.619 368.221C205.697 368.283 205.762 368.361 205.81 368.449C205.859 368.537 205.889 368.633 205.9 368.733C205.911 368.832 205.902 368.933 205.874 369.029C205.824 369.183 205.726 369.317 205.594 369.411C205.462 369.504 205.303 369.552 205.141 369.548Z" fill="white"/>
<path d="M172.23 349.209C172.077 349.212 171.926 349.166 171.8 349.078C171.675 348.99 171.579 348.866 171.528 348.721C166.63 336.148 165.517 309.249 165.425 308.104C165.421 307.903 165.495 307.708 165.631 307.56C165.768 307.412 165.956 307.323 166.157 307.311C166.357 307.314 166.548 307.39 166.694 307.525C166.841 307.66 166.932 307.845 166.951 308.043C166.951 308.318 168.095 335.828 172.901 348.172C172.938 348.266 172.956 348.366 172.953 348.467C172.951 348.568 172.929 348.668 172.887 348.76C172.846 348.852 172.787 348.935 172.714 349.005C172.64 349.074 172.553 349.128 172.459 349.163C172.385 349.19 172.308 349.205 172.23 349.209Z" fill="white"/>
<path d="M172.108 367.29C170.701 367.301 169.295 367.229 167.897 367.076C167.797 367.064 167.7 367.033 167.612 366.983C167.524 366.934 167.446 366.867 167.384 366.788C167.322 366.709 167.276 366.618 167.248 366.521C167.221 366.423 167.213 366.322 167.225 366.222C167.237 366.122 167.269 366.025 167.319 365.937C167.368 365.849 167.434 365.771 167.514 365.709C167.593 365.647 167.684 365.601 167.781 365.573C167.878 365.546 167.98 365.538 168.08 365.55C168.217 365.55 182.422 367.168 188.938 360.531C189.005 360.45 189.089 360.385 189.183 360.338C189.278 360.292 189.381 360.265 189.486 360.261C189.591 360.256 189.695 360.273 189.794 360.311C189.892 360.348 189.981 360.406 190.056 360.48C190.131 360.553 190.19 360.642 190.229 360.739C190.268 360.837 190.286 360.942 190.283 361.047C190.28 361.152 190.255 361.255 190.21 361.35C190.164 361.445 190.1 361.53 190.021 361.599C185.306 366.466 177.082 367.29 172.108 367.29Z" fill="white"/>
<path d="M161.122 78.365L159.475 68.8593L150.991 74.4437C150.216 72.918 149.117 71.5798 147.772 70.5224L151.83 59.5367L144.201 57.843L138.617 68.5236C136.596 68.8644 134.638 69.502 132.804 70.4156L130.378 62.3594L121.314 69.4848L121.909 78.9448C120.064 81.0122 118.39 83.2269 116.905 85.5668L109.428 85.1853L104.18 96.9492L110.603 99.6956C109.933 102.129 109.508 104.623 109.337 107.142L101.174 114.648L102.806 124.169L111.305 118.585C112.076 120.109 113.175 121.443 114.525 122.491L110.542 133.492L118.171 135.17L126.166 127.389C128.013 127.099 127.555 123.62 129.569 122.628L131.995 130.654L141.043 123.544L140.814 119.821C142.645 117.776 149.572 113.275 151.067 110.925L152.944 107.874L158.193 96.11L155.752 91.6852L153.036 85.9177L161.122 78.365ZM133.429 109.659C126.472 115.121 124.274 116.327 123.1 109.018C121.925 101.71 125.907 90.6019 132.865 85.1243C139.822 79.6467 142.477 79.2652 143.728 86.5585C144.979 93.8518 140.402 104.258 133.429 109.659Z" fill="#DEE2E6"/>
<path d="M144.262 57.843L154.165 63.5495L148.58 74.1996L138.678 68.4931L144.262 57.843Z" fill="#E9ECEF"/>
<path d="M169.377 74.5657L160.893 80.1502L150.991 74.4437L159.474 68.8593L169.377 74.5657Z" fill="#E9ECEF"/>
<path d="M168.019 101.771L161.595 99.0395L151.693 93.333L158.116 96.0642L168.019 101.771Z" fill="#DEE2E6"/>
<path d="M110.527 133.492L120.429 139.183L124.488 128.197L114.585 122.491L110.527 133.492Z" fill="#DEE2E6"/>
<path d="M141.806 136.36L131.918 130.654L129.492 122.628L139.395 128.335L141.806 136.36Z" fill="#DEE2E6"/>
<path d="M171.009 84.0714L169.377 74.5657L160.893 80.1501C160.113 78.6237 159.009 77.2856 157.659 76.2288L161.717 65.2431L154.165 63.5494L148.565 74.23C146.545 74.5709 144.586 75.2084 142.752 76.122L140.341 68.0963L131.278 75.2218L131.873 84.6817C130.025 86.7638 128.351 88.9938 126.868 91.3495L119.377 90.968L114.128 102.732L120.551 105.478C119.887 107.918 119.463 110.417 119.285 112.939L111.137 120.34L112.77 129.861L121.253 124.276C122.034 125.798 123.138 127.131 124.488 128.182L120.429 139.168L128.058 140.862L133.643 130.181C135.671 129.844 137.636 129.201 139.471 128.274L141.882 136.299L150.945 129.189L150.35 119.729C152.196 117.662 153.87 115.447 155.355 113.107L162.846 113.474L168.095 101.71L161.58 98.9784C162.256 96.5405 162.685 94.0409 162.862 91.5173L171.009 84.0714ZM143.347 115.427C136.404 120.889 129.752 119.409 128.486 112.116C127.219 104.822 131.842 94.4621 138.8 88.9997C145.758 83.5374 152.395 85.0327 153.661 92.326C154.928 99.6193 150.304 109.964 143.347 115.427Z" fill="#E9ECEF"/>
<path d="M140.341 68.0659L130.438 62.3594L121.375 69.4848L131.278 75.1913L140.341 68.0659Z" fill="#E9ECEF"/>
<path d="M121.375 69.4847L121.97 78.9447L131.873 84.6512L131.278 75.1912L121.375 69.4847Z" fill="#DEE2E6"/>
<path d="M126.868 91.2731L116.966 85.5666L109.489 85.2004L119.376 90.9069L126.868 91.2731Z" fill="#E9ECEF"/>
<path d="M109.489 85.2004L104.24 96.9491L114.128 102.656L119.376 90.9069L109.489 85.2004Z" fill="#DEE2E6"/>
<path d="M119.285 112.848L109.398 107.141L101.235 114.648L111.122 120.355L119.285 112.848Z" fill="#E9ECEF"/>
<path d="M112.77 129.876L102.867 124.169L101.235 114.648L111.122 120.355L112.77 129.876Z" fill="#DEE2E6"/>
<path d="M154.165 63.5495L144.262 57.843L151.83 59.5367L161.717 65.2431L154.165 63.5495Z" fill="#E9ECEF"/>
<path d="M116.783 35.2154V21.0102L105.476 26.1064C104.878 23.6963 103.843 21.4159 102.425 19.3776L109.55 5.01987L100.853 0L91.9732 13.3507C89.4985 13.1345 87.0051 13.3777 84.6188 14.0678L83.3677 1.72416L71.0697 8.83437L69.8338 22.5665C67.1574 24.9381 64.6963 27.5421 62.4795 30.3481L53.5994 27.2965L44.9023 42.3714L52.0125 48.4746C50.6987 51.797 49.6776 55.2278 48.9609 58.7279L37.6548 66.6773V80.8977L48.9609 75.8016C49.5598 78.2117 50.594 80.492 52.0125 82.5304L44.9328 96.9034L53.6299 101.923L62.51 88.5725C64.9847 88.788 67.4779 88.5449 69.8643 87.8554L71.1003 100.199L83.3982 93.0889L84.6493 79.3567C88.4877 77.9562 91.888 75.5666 94.506 72.4296L100.884 74.6725L109.581 59.6129L104.241 55.0355C105.4 51.2185 105.829 47.2172 105.507 43.2411L116.783 35.2154ZM77.2187 70.7054C67.7893 76.1525 61.9607 72.2312 61.9607 61.3828C61.9607 50.5344 69.7575 37.1226 79.2022 31.6755C88.6469 26.2285 94.3534 30.1497 94.3534 41.0897C94.3534 52.0297 86.6634 65.2431 77.2187 70.7054Z" fill="#DEE2E6"/>
<path d="M110.74 5.69123L100.853 0L91.9731 13.3507L101.86 19.0572L110.74 5.69123Z" fill="#E9ECEF"/>
<path d="M126.685 26.7167L116.783 21.0103L105.477 26.1064L115.379 31.8129L126.685 26.7167Z" fill="#E9ECEF"/>
<path d="M80.9568 105.906L71.0696 100.199L69.8337 87.8553L79.7209 93.5618L80.9568 105.906Z" fill="#DEE2E6"/>
<path d="M44.887 96.9034L54.7894 102.61L61.9149 88.2521L52.0124 82.5457L44.887 96.9034Z" fill="#DEE2E6"/>
<path d="M126.685 40.9981V26.7929L115.379 31.8433C114.786 29.4311 113.752 27.1496 112.327 25.1146L119.453 10.7568L110.756 5.72168L101.876 19.0877C99.4008 18.8639 96.906 19.1072 94.5212 19.8048L93.27 7.43058L80.9721 14.5408L79.7209 28.273C77.0483 30.6485 74.5876 33.2522 72.3666 36.0545L63.4865 33.0029L54.7894 48.0778L61.9149 54.181C60.5941 57.501 59.5729 60.9325 58.8633 64.4343L47.5571 72.3838V86.6042L58.8633 81.508C59.4555 83.9204 60.4902 86.2019 61.9149 88.2368L54.7894 102.595L63.4865 107.614L72.3666 94.2637C74.8413 94.4799 77.3346 94.2368 79.7209 93.5466L80.9721 105.89L93.27 98.78L94.5059 85.0479C97.1824 82.6763 99.6434 80.0723 101.86 77.2663L110.74 80.3179L119.437 65.2583L112.312 59.1551C113.632 55.8349 114.654 52.4035 115.364 48.9017L126.685 40.9981ZM87.121 76.4881C77.6763 81.9352 70.0169 77.5104 70.0169 66.6162C70.0169 55.722 77.6458 42.4629 87.121 37.0005C96.5962 31.5382 104.21 35.9782 104.21 46.8724C104.21 57.7666 96.5505 70.9495 87.121 76.4119V76.4881Z" fill="#E9ECEF"/>
<path d="M62.4795 30.3786L72.3667 36.0851L63.4865 32.9877L53.5994 27.266L62.4795 30.3786Z" fill="#E9ECEF"/>
<path d="M53.5983 27.2816L44.8989 42.3616L54.798 48.0722L63.4974 32.9923L53.5983 27.2816Z" fill="#E9ECEF"/>
<path d="M44.887 42.3408L54.7894 48.0473L61.9149 54.181L52.0124 48.4898L44.887 42.3408Z" fill="#DEE2E6"/>
<path d="M48.9609 58.7432L58.8634 64.4496L47.5572 72.3991L37.6548 66.6926L48.9609 58.7432Z" fill="#E9ECEF"/>
<path d="M37.6548 66.6926L47.5572 72.3991V86.6195L37.6548 80.9131V66.6926Z" fill="#DEE2E6"/>
<path d="M93.2702 7.4306L83.3678 1.72412L71.0698 8.83433L80.957 14.5408L93.2702 7.4306Z" fill="#E9ECEF"/>
<path d="M220.216 414.895L363.641 332.074C363.957 331.963 364.231 331.757 364.424 331.484C364.618 331.21 364.722 330.884 364.722 330.549C364.722 330.214 364.618 329.887 364.424 329.614C364.231 329.34 363.957 329.134 363.641 329.023L350.382 321.394C349.561 320.981 348.654 320.765 347.735 320.765C346.815 320.765 345.909 320.981 345.087 321.394L201.617 404.138C201.301 404.249 201.027 404.455 200.834 404.729C200.64 405.002 200.536 405.329 200.536 405.664C200.536 405.999 200.64 406.325 200.834 406.599C201.027 406.872 201.301 407.078 201.617 407.189L214.922 414.818C215.737 415.244 216.641 415.472 217.56 415.485C218.479 415.498 219.389 415.296 220.216 414.895Z" fill="#DEE2E6"/>
<path d="M359.705 12.3132L230.378 86.9857C228.456 88.2404 226.856 89.9302 225.708 91.9183C224.56 93.9064 223.897 96.137 223.771 98.4292V405.221C223.771 409.432 226.732 411.141 230.378 409.036L359.705 334.363C361.63 333.111 363.232 331.422 364.38 329.433C365.528 327.445 366.19 325.213 366.311 322.92V16.1277C366.311 11.9165 363.367 10.2076 359.705 12.3132Z" fill="#6C757D"/>
<path d="M230.378 86.9857L359.705 12.3132C362.97 10.4212 365.67 11.5961 366.22 14.8765C365.915 12.814 365.176 10.8395 364.053 9.08277C362.931 7.32607 361.448 5.827 359.705 4.6842L354.334 1.6326C352.286 0.593843 350.023 0.0524902 347.727 0.0524902C345.431 0.0524902 343.168 0.593843 341.12 1.6326L211.779 76.2441C209.831 77.4656 208.224 79.1612 207.11 81.1724L225.709 91.853C226.823 89.8577 228.431 88.1818 230.378 86.9857Z" fill="#495057"/>
<path d="M205.141 394.48C205.267 396.772 205.93 399.002 207.078 400.99C208.226 402.979 209.826 404.668 211.748 405.923L217.134 408.975C218.998 409.907 221.038 410.435 223.121 410.525C225.203 410.614 227.281 410.263 229.218 409.493C226.167 410.683 223.741 408.929 223.741 405.16V98.4291C223.817 96.1272 224.485 93.8835 225.679 91.914L207.079 81.2334C205.902 83.1881 205.235 85.4076 205.141 87.6875V394.48Z" fill="#212529"/>
<path d="M233.933 127.862L356.195 57.2937C358.393 56.0425 360.162 57.0648 360.162 59.5824V286.651C360.089 288.028 359.691 289.367 359.002 290.56C358.313 291.753 357.351 292.767 356.195 293.518L233.979 364.086C231.782 365.352 230.012 364.33 230.012 361.797V134.728C230.081 133.356 230.472 132.02 231.154 130.827C231.835 129.634 232.787 128.619 233.933 127.862Z" fill="white"/>
<path d="M295.041 61.2761C294.367 61.7191 293.805 62.3144 293.402 63.014C292.999 63.7137 292.766 64.4981 292.722 65.3042C292.722 66.83 293.76 67.3945 295.041 66.6469C295.719 66.2065 296.282 65.6119 296.685 64.9117C297.088 64.2115 297.32 63.4257 297.361 62.6188C297.361 61.1387 296.323 60.5437 295.041 61.2761Z" fill="#495057"/>
<path d="M295.041 339.658C292.374 341.403 290.155 343.751 288.565 346.513C286.974 349.276 286.057 352.374 285.887 355.556C285.887 361.4 289.991 363.781 295.041 360.851C297.708 359.105 299.926 356.756 301.516 353.994C303.107 351.232 304.025 348.135 304.196 344.952C304.227 339.108 300.107 336.728 295.041 339.658Z" fill="#495057"/>
<path d="M273.085 84.8954C271.744 85.7855 270.631 86.9784 269.836 88.3778C269.041 89.7772 268.586 91.344 268.508 92.9516C268.508 95.9116 270.583 97.117 273.085 95.637C274.44 94.7553 275.568 93.5661 276.377 92.1661C277.185 90.7662 277.652 89.1951 277.739 87.5808C277.739 84.6207 275.664 83.4153 273.085 84.8954Z" fill="#495057"/>
<path d="M284.483 83.8883C284.483 85.8719 286.009 86.6195 287.794 85.5667L318.31 67.9132C319.255 67.3229 320.048 66.5177 320.623 65.5632C321.198 64.6088 321.54 63.5319 321.621 62.4204C321.621 60.4521 320.095 59.7044 318.31 60.7572L287.794 78.4107C286.851 78.9996 286.059 79.8023 285.484 80.754C284.909 81.7056 284.566 82.7794 284.483 83.8883Z" fill="#495057"/>
<path d="M215.456 137.688C216.539 138.393 217.44 139.344 218.087 140.462C218.734 141.581 219.108 142.837 219.179 144.127C219.179 146.507 217.516 147.468 215.456 146.278C214.377 145.57 213.479 144.619 212.835 143.5C212.191 142.382 211.819 141.128 211.748 139.839C211.748 137.474 213.411 136.513 215.456 137.688Z" fill="#495057"/>
<path d="M215.456 166.342C216.539 167.048 217.44 167.998 218.087 169.117C218.734 170.236 219.108 171.491 219.179 172.781C219.179 175.146 217.516 176.107 215.456 174.933C214.377 174.225 213.479 173.273 212.835 172.155C212.191 171.036 211.819 169.782 211.748 168.494C211.748 166.114 213.411 165.152 215.456 166.342Z" fill="#495057"/>
<path d="M214.296 138.268C215.379 138.973 216.28 139.924 216.927 141.042C217.574 142.161 217.948 143.416 218.019 144.707C218.019 147.072 216.356 148.033 214.296 146.858C213.213 146.153 212.312 145.202 211.665 144.083C211.018 142.965 210.644 141.709 210.573 140.419C210.589 138.039 212.252 137.123 214.296 138.268Z" fill="#6C757D"/>
<path d="M214.296 166.907C215.381 167.614 216.284 168.567 216.931 169.688C217.577 170.81 217.95 172.068 218.019 173.361C218.019 175.726 216.356 176.687 214.296 175.497C213.211 174.795 212.308 173.845 211.66 172.725C211.013 171.606 210.641 170.349 210.573 169.058C210.589 166.693 212.252 165.732 214.296 166.907Z" fill="#6C757D"/>
<path d="M384.911 66.7689C384.911 64.2361 383.141 63.2138 380.944 64.4802L366.312 72.9179L258.728 135.048C257.572 135.799 256.61 136.813 255.921 138.006C255.231 139.199 254.834 140.538 254.76 141.914V368.922C254.76 371.455 256.53 372.478 258.728 371.211L366.357 309.065L380.944 300.643C382.099 299.892 383.061 298.879 383.751 297.686C384.44 296.492 384.838 295.153 384.911 293.777V66.7689Z" fill="white"/>
<path d="M386.437 66.7688C386.533 66.0037 386.401 65.2272 386.058 64.5365C385.715 63.8458 385.176 63.2716 384.508 62.8856C383.841 62.4997 383.074 62.3192 382.304 62.3667C381.535 62.4142 380.796 62.6876 380.181 63.1527L366.22 71.2242L257.964 133.782C256.571 134.662 255.412 135.867 254.588 137.295C253.764 138.722 253.299 140.328 253.235 141.975V368.922C253.173 369.684 253.32 370.448 253.658 371.133C253.997 371.819 254.515 372.399 255.157 372.813C255.703 373.131 256.326 373.294 256.957 373.286C257.852 373.258 258.724 373.001 259.49 372.539L367.822 309.981L381.752 301.94C383.138 301.052 384.291 299.844 385.114 298.418C385.937 296.993 386.406 295.391 386.482 293.746L386.437 66.7688ZM366.25 307.372L364.999 308.104L258.026 369.868C257.846 370.007 257.637 370.103 257.416 370.15C257.194 370.198 256.964 370.195 256.744 370.143C256.546 370.021 256.347 369.594 256.347 368.892V141.914C256.426 140.806 256.756 139.731 257.311 138.769C257.866 137.807 258.632 136.983 259.551 136.36L366.418 74.5657L381.676 65.7313C381.856 65.5932 382.064 65.4969 382.286 65.4494C382.508 65.4018 382.737 65.4043 382.958 65.4567C383.156 65.5787 383.354 66.006 383.354 66.7078V293.777C383.275 294.885 382.946 295.96 382.391 296.922C381.836 297.884 381.07 298.708 380.15 299.331L366.22 307.372H366.25Z" fill="#0D6EFD"/>
<path d="M319.836 119.516C333.568 111.612 344.63 117.99 344.63 133.843C344.63 149.696 333.522 168.936 319.836 176.779C306.149 184.621 295.042 178.305 295.042 162.467C295.042 146.629 306.149 127.435 319.836 119.516Z" fill="#0D6EFD"/>
<path d="M319.836 131.966C324.276 129.403 327.877 131.478 327.877 136.544C327.726 139.334 326.919 142.05 325.522 144.47C324.125 146.891 322.177 148.948 319.836 150.474C315.396 153.037 311.795 150.962 311.795 145.897C311.946 143.106 312.752 140.39 314.149 137.97C315.546 135.549 317.495 133.493 319.836 131.966Z" fill="#0D6EFD"/>
<path d="M335.505 159.308C335.505 150.886 329.601 147.468 322.292 151.679L317.715 154.319C310.421 158.53 304.501 168.784 304.501 177.206V179.479C308.728 180.868 314.037 180.12 319.759 176.779C326.098 172.869 331.458 167.561 335.429 161.261L335.505 159.308Z" fill="#0D6EFD"/>
<path opacity="0.7" d="M319.836 131.966C324.276 129.403 327.877 131.478 327.877 136.544C327.726 139.334 326.919 142.05 325.522 144.47C324.125 146.891 322.177 148.948 319.836 150.474C315.396 153.037 311.795 150.962 311.795 145.897C311.946 143.106 312.752 140.39 314.149 137.97C315.546 135.549 317.495 133.493 319.836 131.966Z" fill="white"/>
<path opacity="0.7" d="M335.505 159.308C335.505 150.886 329.601 147.468 322.292 151.679L317.715 154.319C310.421 158.53 304.501 168.784 304.501 177.206V179.479C308.728 180.868 314.037 180.12 319.759 176.779C326.098 172.869 331.458 167.561 335.429 161.261L335.505 159.308Z" fill="white"/>
<path d="M271.864 211.643L303.769 193.227C305.295 192.388 306.409 193.059 306.409 194.753V195.805C306.36 196.722 306.096 197.615 305.637 198.41C305.179 199.206 304.538 199.882 303.769 200.383L271.864 218.799C270.415 219.638 269.225 218.952 269.225 217.273V216.221C269.274 215.304 269.539 214.412 269.998 213.617C270.456 212.821 271.096 212.145 271.864 211.643Z" fill="#0D6EFD"/>
<path opacity="0.1" d="M271.864 211.643L303.769 193.227C305.295 192.388 306.409 193.059 306.409 194.753V195.805C306.36 196.722 306.096 197.615 305.637 198.41C305.179 199.206 304.538 199.882 303.769 200.383L271.864 218.799C270.415 219.638 269.225 218.952 269.225 217.273V216.221C269.274 215.304 269.539 214.412 269.998 213.617C270.456 212.821 271.096 212.145 271.864 211.643Z" fill="#212529"/>
<path d="M270.552 233.874L367.074 178.152C367.791 177.725 368.386 178.061 368.386 178.915V190.175C368.36 190.632 368.227 191.077 367.999 191.474C367.772 191.871 367.455 192.21 367.074 192.464L270.552 248.186C269.82 248.613 269.225 248.262 269.225 247.423V236.163C269.251 235.704 269.385 235.258 269.615 234.86C269.846 234.463 270.167 234.125 270.552 233.874Z" fill="#0D6EFD"/>
<path opacity="0.2" d="M270.552 233.874L367.074 178.152C367.791 177.725 368.386 178.061 368.386 178.915V190.175C368.36 190.632 368.227 191.077 367.999 191.474C367.772 191.871 367.455 192.21 367.074 192.464L270.552 248.186C269.82 248.613 269.225 248.262 269.225 247.423V236.163C269.251 235.704 269.385 235.258 269.615 234.86C269.846 234.463 270.167 234.125 270.552 233.874Z" fill="white"/>
<path d="M271.864 261.735L303.769 243.319C305.295 242.48 306.409 243.166 306.409 244.845V245.897C306.361 246.815 306.098 247.708 305.639 248.503C305.18 249.299 304.539 249.975 303.769 250.475L271.864 268.891C270.415 269.746 269.225 269.059 269.225 267.365V266.313C269.277 265.397 269.543 264.505 270.001 263.71C270.459 262.915 271.098 262.239 271.864 261.735Z" fill="#0D6EFD"/>
<path opacity="0.1" d="M271.864 261.735L303.769 243.319C305.295 242.48 306.409 243.166 306.409 244.845V245.897C306.361 246.815 306.098 247.708 305.639 248.503C305.18 249.299 304.539 249.975 303.769 250.475L271.864 268.891C270.415 269.746 269.225 269.059 269.225 267.365V266.313C269.277 265.397 269.543 264.505 270.001 263.71C270.459 262.915 271.098 262.239 271.864 261.735Z" fill="#212529"/>
<path d="M270.552 283.966L367.074 228.244C367.791 227.817 368.386 228.168 368.386 229.007V240.267C368.36 240.724 368.227 241.169 367.999 241.566C367.772 241.963 367.455 242.302 367.074 242.556L270.552 298.278C269.82 298.705 269.225 298.37 269.225 297.515V286.255C269.251 285.796 269.385 285.35 269.615 284.952C269.846 284.554 270.167 284.217 270.552 283.966Z" fill="#0D6EFD"/>
<path opacity="0.2" d="M270.552 283.966L367.074 228.244C367.791 227.817 368.386 228.168 368.386 229.007V240.267C368.36 240.724 368.227 241.169 367.999 241.566C367.772 241.963 367.455 242.302 367.074 242.556L270.552 298.278C269.82 298.705 269.225 298.37 269.225 297.515V286.255C269.251 285.796 269.385 285.35 269.615 284.952C269.846 284.554 270.167 284.217 270.552 283.966Z" fill="white"/>
<path d="M309.048 290.359L347.193 268.372C348.719 267.518 349.848 268.205 349.848 269.898V281.677C349.798 282.596 349.532 283.489 349.07 284.285C348.609 285.08 347.966 285.755 347.193 286.255L309.048 308.257C307.523 309.096 306.409 308.409 306.409 306.731V294.936C306.462 294.021 306.728 293.13 307.186 292.335C307.645 291.54 308.282 290.864 309.048 290.359Z" fill="#0D6EFD"/>
<path opacity="0.1" d="M309.048 290.359L347.193 268.372C348.719 267.518 349.848 268.205 349.848 269.898V281.677C349.798 282.596 349.532 283.489 349.07 284.285C348.609 285.08 347.966 285.755 347.193 286.255L309.048 308.257C307.523 309.096 306.409 308.409 306.409 306.731V294.936C306.462 294.021 306.728 293.13 307.186 292.335C307.645 291.54 308.282 290.864 309.048 290.359Z" fill="#212529"/>
<path d="M399.375 240.649C399.375 240.649 380.639 214.802 379.54 211.659C378.67 209.339 379.54 205.891 379.815 204.289C380.089 202.687 380.333 199.116 380.608 198.186C381.066 196.446 378.823 196.797 377.557 198.384C376.29 199.971 375.863 203.145 375.207 203.663C374.551 204.182 369.561 196.904 366.952 193.547C364.343 190.191 362.711 188.146 361.108 189.397C359.964 190.297 360.819 192.25 362.71 195.119C363.815 196.663 364.834 198.268 365.762 199.925C366.052 200.551 364.496 200.596 363.657 201.893C363 202.9 363.657 204.533 362.741 205.311C362.178 205.74 361.792 206.361 361.657 207.056C361.521 207.751 361.647 208.471 362.009 209.08C363.707 211.747 365.897 214.067 368.463 215.915C371.27 217.853 372.399 218.54 374.062 221.179C375.726 223.819 390.648 250.78 391.655 252.397C392.662 254.015 394.6 257.31 397.544 257.402C400.489 257.493 424.597 236.743 425.833 235.705C429.8 232.394 431.066 231.921 431.738 234.896C431.969 235.954 432.143 237.024 432.256 238.101C432.729 241.885 435.308 255.403 435.308 255.403C435.308 255.403 447.514 261.308 457.539 258.455C467.563 255.601 470.951 251.344 470.951 251.344L465.931 243.166C467.289 239.794 473.56 226.123 475.589 216.556L444.158 211.475C443.517 211.338 442.479 211.079 441.106 210.728C439.382 210.27 435.003 208.759 431.692 211.659C420.889 221.073 399.406 240.649 399.406 240.649" fill="#F1AEB5"/>
<path d="M461.689 399.24L456.059 407.067C458.618 408.262 461.413 408.862 464.237 408.822C469.287 409.005 470.676 407.296 470.859 406.961C471.713 405.13 470.386 401.834 470.02 398.996L461.689 399.24Z" fill="#495057"/>
<path d="M456.379 403.314C456.379 403.314 449.544 402.871 444.829 402.292C440.114 401.712 436.376 404 437.474 405.938C438.573 407.876 441.182 409.493 445.241 410.851C448.704 412.026 452.87 412.865 456.471 413.903C460.072 414.94 462.574 416.298 464.664 415.566C466.999 414.757 468.006 413.827 467.807 412.118C467.298 409.687 466.666 407.283 465.915 404.916L456.379 403.314Z" fill="#495057"/>
<path d="M470.859 391.382C470.859 391.382 470.005 398.492 469.943 400.018C469.882 401.544 463.001 402.032 461.689 399.24L461.475 390.543L470.859 391.382Z" fill="#F1AEB5"/>
<path d="M463.932 395.746L466.388 406.548C466.388 406.548 466.617 407.861 461.002 408.7C455.387 409.539 446.568 405.755 445.058 404.992C443.547 404.229 443.379 402.688 448.903 402.993C454.426 403.299 456.379 403.314 456.379 403.314L454.579 398.538L463.932 395.746Z" fill="#F1AEB5"/>
<path d="M475.497 216.465L479.388 215.381C479.388 215.381 487.521 241.122 488.421 243.609C489.321 246.096 490.343 248.72 488.589 251.787C486.498 255.434 475.497 270.097 475.497 270.097L468.509 263.261L476.443 248.735L469.425 234.545L475.497 216.465Z" fill="#F1AEB5"/>
<path d="M435.537 183.035C434.625 181.322 434.162 179.407 434.191 177.467C434.22 175.527 434.741 173.626 435.705 171.942C439.58 164.756 448.216 161.261 458.5 162.589C463.261 163.214 468.875 167.166 471.942 173.071C475.33 179.617 475.65 192.8 476.52 197.789L435.537 183.035Z" fill="#495057"/>
<path d="M435.262 185.857C435.262 185.857 432.821 190.511 433.248 190.938C433.881 191.308 434.572 191.566 435.292 191.701L435.262 185.857Z" fill="#F1AEB5"/>
<path d="M442.678 171.149C440.023 172.873 435.445 176.046 435.247 186.498C435.033 197.179 436.559 200.703 438.146 201.939C439.214 202.778 445.485 202.351 448.17 201.726C450.856 201.1 458.592 197.27 461.384 191.457C464.664 184.621 463.993 174.673 459.126 171.622C456.648 170.157 453.84 169.345 450.963 169.262C448.086 169.179 445.235 169.828 442.678 171.149Z" fill="#F1AEB5"/>
<path d="M470.859 251.283C475.558 258.607 480.014 265.016 480.99 273.285C483.004 290.664 476.413 310.53 474.994 323.393C477.662 327.051 479.201 331.411 479.419 335.935C479.419 341.26 470.859 391.382 470.859 391.382C470.859 391.382 464.634 393.274 461.475 390.543L455.601 298.339L458.653 287.109L470.859 251.283Z" fill="#0D6EFD"/>
<path opacity="0.2" d="M470.859 251.283C475.558 258.607 480.014 265.016 480.99 273.285C483.004 290.664 476.413 310.53 474.994 323.393C477.662 327.051 479.201 331.411 479.419 335.935C479.419 341.26 470.859 391.382 470.859 391.382C470.859 391.382 464.634 393.274 461.475 390.543L455.601 298.339L458.653 287.109L470.859 251.283Z" fill="#212529"/>
<path d="M455.601 298.339L458.653 287.109C464.496 285.571 470.131 283.332 475.436 280.441C475.436 280.441 472.263 286.224 463.139 289.398L458.424 303.817L458.027 336.85L455.601 298.339Z" fill="#0D6EFD"/>
<path opacity="0.3" d="M455.601 298.339L458.653 287.109C464.496 285.571 470.131 283.332 475.436 280.441C475.436 280.441 472.263 286.224 463.139 289.398L458.424 303.817L458.027 336.85L455.601 298.339Z" fill="#212529"/>
<path d="M470.859 251.283C473.377 255.403 479.388 262.422 478.107 269.181C476.581 277.359 472.156 283.112 458.698 287.109L446.065 332.883C446.065 332.883 452.641 338.986 454.655 344.891C456.669 350.796 463.932 395.776 463.932 395.776C463.932 395.776 461.674 399.454 454.579 398.569C454.579 398.569 429.846 342.114 428.106 338.437C425.995 334.713 425.255 330.367 426.016 326.154C426.794 320.234 435.171 255.434 435.171 255.434L470.859 251.283Z" fill="#0D6EFD"/>
<path opacity="0.2" d="M470.859 251.283C473.377 255.403 479.388 262.422 478.107 269.181C476.581 277.359 472.156 283.112 458.698 287.109L446.065 332.883C446.065 332.883 452.641 338.986 454.655 344.891C456.669 350.796 463.932 395.776 463.932 395.776C463.932 395.776 461.674 399.454 454.579 398.569C454.579 398.569 429.846 342.114 428.106 338.437C425.995 334.713 425.255 330.367 426.016 326.154C426.794 320.234 435.171 255.434 435.171 255.434L470.859 251.283Z" fill="#212529"/>
<path d="M475.498 216.465L444.066 211.384C443.425 211.247 442.388 210.987 441.014 210.636C441.014 210.636 439.672 230.35 431.6 234.866C431.799 235.812 431.967 236.865 432.119 238.07C432.592 241.854 435.171 255.373 435.171 255.373C435.171 255.373 447.377 261.277 457.402 258.424C467.426 255.571 470.813 251.314 470.813 251.314L465.793 243.136C467.197 239.733 473.514 226.062 475.498 216.465Z" fill="#0D6EFD"/>
<path opacity="0.7" d="M475.498 216.465L444.066 211.384C443.425 211.247 442.388 210.987 441.014 210.636C441.014 210.636 439.672 230.35 431.6 234.866C431.799 235.812 431.967 236.865 432.119 238.07C432.592 241.854 435.171 255.373 435.171 255.373C435.171 255.373 447.377 261.277 457.402 258.424C467.426 255.571 470.813 251.314 470.813 251.314L465.793 243.136C467.197 239.733 473.514 226.062 475.498 216.465Z" fill="white"/>
<path d="M467.212 239.886C463.038 242.392 458.665 244.551 454.136 246.34C458.246 246.258 462.27 245.146 465.839 243.105L467.212 239.886Z" fill="#0D6EFD"/>
<path d="M441.899 171.667C441.899 171.667 440.374 181.585 443.974 187.414C443.974 187.414 445.317 183.462 448.659 184.209C452 184.957 452.183 189.367 449.834 191.838C449.236 192.532 448.456 193.043 447.581 193.313C446.707 193.582 445.774 193.6 444.89 193.364C444.89 193.364 444.356 200.535 444.066 206.547C443.776 212.559 442.189 225.665 448.949 230.96C455.708 236.254 472.675 238.116 480.624 227.008C485.049 220.829 479.175 209.904 476.443 197.652C473.926 186.391 472.507 169.699 460.56 167.014C448.613 164.328 441.899 171.667 441.899 171.667Z" fill="#495057"/>
<path d="M485.736 36.1613L483.218 37.6871C483.429 36.7914 483.547 35.8761 483.569 34.956C483.569 29.8445 479.983 27.7847 475.559 30.3786C474.212 31.1908 473.01 32.2222 472.003 33.4302C472.003 26.5641 467.182 23.7719 461.231 27.2049C458.096 29.2499 455.486 32.0052 453.614 35.2474C451.743 38.4896 450.662 42.1273 450.459 45.8654C450.459 46.2164 450.459 46.552 450.459 46.8877C448.926 46.6948 447.375 47.0516 446.08 47.8947C443.749 49.414 441.808 51.4617 440.416 53.8715C439.024 56.2814 438.221 58.9854 438.07 61.7642C438.069 62.4102 438.135 63.0545 438.268 63.6867L436.925 64.4649C433.279 66.5705 430.319 70.6749 430.319 73.6197C430.319 76.5645 433.279 77.2663 436.925 75.1455L485.751 46.9945C489.397 44.8889 492.358 40.7845 492.358 37.8397C492.358 34.8949 489.382 34.0405 485.736 36.1613Z" fill="#E9ECEF"/>
</svg>
