<svg width="155" height="24" viewBox="0 0 155 24" fill="none" xmlns="http://www.w3.org/2000/svg">
<path d="M18.7863 13.1339L13.3954 22.3668L8.00448 13.1339H18.7863ZM20.2305 12.3087H6.55444L13.3954 23.9999L20.2305 12.3087Z" fill="#263238"/>
<path d="M28.1591 1.65038L33.55 10.8833H22.7682L28.1591 1.65038ZM28.1591 0L21.3181 11.6912H35L28.1591 0Z" fill="#263238"/>
<path d="M0 0L5.7359 10.3409L12.0038 0.259661L0 0Z" fill="#0D6EFD"/>
<path d="M13.3955 0.905884L19.4121 11.189H7.36731L13.3955 0.905884Z" fill="#0D6EFD"/>
<path d="M20.9615 13.4341L26.9839 24H14.6526L20.7744 13.4341H20.9615Z" fill="#0D6EFD"/>
<path d="M22.2654 12.7935L28.1591 23.1978L34.1347 12.7935H22.2654Z" fill="#0D6EFD"/>
<path d="M60.0327 1.66907V22.0327H56.3139L47.4545 9.21594H47.3054V22.0327H43V1.66907H46.7784L55.5682 14.4759H55.7472V1.66907H60.0327Z" fill="#263238"/>
<path d="M70.4705 22.331C68.8995 22.331 67.5472 22.0128 66.4137 21.3765C65.2868 20.7335 64.4184 19.8253 63.8086 18.652C63.1987 17.4721 62.8938 16.0767 62.8938 14.4659C62.8938 12.8949 63.1987 11.5161 63.8086 10.3296C64.4184 9.14303 65.2769 8.21831 66.3839 7.55543C67.4975 6.89255 68.8034 6.56111 70.3015 6.56111C71.3091 6.56111 72.247 6.72352 73.1154 7.04833C73.9904 7.36651 74.7527 7.8471 75.4023 8.49009C76.0586 9.13308 76.569 9.9418 76.9336 10.9162C77.2982 11.884 77.4805 13.0176 77.4805 14.3168V15.4801H64.5842V12.8551H73.4933C73.4933 12.2453 73.3607 11.7051 73.0955 11.2344C72.8304 10.7638 72.4625 10.3959 71.9918 10.1307C71.5278 9.85894 70.9876 9.72305 70.3711 9.72305C69.7281 9.72305 69.158 9.87219 68.6609 10.1705C68.1703 10.4622 67.7859 10.8566 67.5075 11.3537C67.229 11.8443 67.0865 12.3911 67.0799 12.9944V15.4901C67.0799 16.2458 67.2191 16.8987 67.4975 17.4489C67.7826 17.9991 68.1836 18.4233 68.7006 18.7216C69.2177 19.0199 69.8308 19.1691 70.5401 19.1691C71.0108 19.1691 71.4416 19.1028 71.8327 18.9702C72.2238 18.8376 72.5586 18.6388 72.837 18.3736C73.1154 18.1085 73.3275 17.7837 73.4734 17.3992L77.391 17.6577C77.1921 18.599 76.7844 19.421 76.168 20.1236C75.5581 20.8196 74.7693 21.3632 73.8015 21.7543C72.8403 22.1388 71.73 22.331 70.4705 22.331Z" fill="#263238"/>
<path d="M83.511 6.75998L86.315 12.0995L89.1886 6.75998H93.5337L89.109 14.3963L93.6531 22.0327H89.3278L86.315 16.7529L83.3519 22.0327H78.9769L83.511 14.3963L79.136 6.75998H83.511Z" fill="#263238"/>
<path d="M102.403 22.331C100.839 22.331 99.493 21.9996 98.3661 21.3367C97.2459 20.6672 96.3841 19.7391 95.7809 18.5526C95.1843 17.366 94.886 16.0005 94.886 14.456C94.886 12.8916 95.1876 11.5194 95.7908 10.3395C96.4007 9.15297 97.2657 8.22825 98.386 7.56537C99.5063 6.89587 100.839 6.56111 102.383 6.56111C103.716 6.56111 104.882 6.80306 105.883 7.28696C106.884 7.77087 107.676 8.45032 108.26 9.32532C108.843 10.2003 109.164 11.2278 109.224 12.4077H105.227C105.114 11.6454 104.816 11.0322 104.332 10.5682C103.855 10.0976 103.228 9.86225 102.453 9.86225C101.797 9.86225 101.223 10.0412 100.733 10.3992C100.249 10.7505 99.8709 11.2642 99.5991 11.9404C99.3273 12.6165 99.1914 13.4352 99.1914 14.3963C99.1914 15.3708 99.324 16.1994 99.5891 16.8821C99.8609 17.5649 100.242 18.0853 100.733 18.4432C101.223 18.8012 101.797 18.9801 102.453 18.9801C102.937 18.9801 103.371 18.8807 103.755 18.6819C104.146 18.483 104.468 18.1946 104.72 17.8168C104.978 17.4323 105.147 16.9716 105.227 16.4347H109.224C109.158 17.6014 108.84 18.6288 108.27 19.5171C107.706 20.3987 106.927 21.0881 105.933 21.5853C104.939 22.0824 103.762 22.331 102.403 22.331Z" fill="#263238"/>
<path d="M118.896 22.331C117.325 22.331 115.973 22.0128 114.839 21.3765C113.713 20.7335 112.844 19.8253 112.234 18.652C111.625 17.4721 111.32 16.0767 111.32 14.4659C111.32 12.8949 111.625 11.5161 112.234 10.3296C112.844 9.14303 113.703 8.21831 114.81 7.55543C115.923 6.89255 117.229 6.56111 118.727 6.56111C119.735 6.56111 120.673 6.72352 121.541 7.04833C122.416 7.36651 123.179 7.8471 123.828 8.49009C124.484 9.13308 124.995 9.9418 125.359 10.9162C125.724 11.884 125.906 13.0176 125.906 14.3168V15.4801H113.01V12.8551H121.919C121.919 12.2453 121.786 11.7051 121.521 11.2344C121.256 10.7638 120.888 10.3959 120.418 10.1307C119.954 9.85894 119.413 9.72305 118.797 9.72305C118.154 9.72305 117.584 9.87219 117.087 10.1705C116.596 10.4622 116.212 10.8566 115.933 11.3537C115.655 11.8443 115.512 12.3911 115.506 12.9944V15.4901C115.506 16.2458 115.645 16.8987 115.923 17.4489C116.208 17.9991 116.609 18.4233 117.126 18.7216C117.643 19.0199 118.257 19.1691 118.966 19.1691C119.437 19.1691 119.867 19.1028 120.259 18.9702C120.65 18.8376 120.984 18.6388 121.263 18.3736C121.541 18.1085 121.753 17.7837 121.899 17.3992L125.817 17.6577C125.618 18.599 125.21 19.421 124.594 20.1236C123.984 20.8196 123.195 21.3632 122.227 21.7543C121.266 22.1388 120.156 22.331 118.896 22.331Z" fill="#263238"/>
<path d="M132.906 13.2032V22.0327H128.67V6.75998H132.707V9.45458H132.886C133.224 8.56632 133.791 7.86367 134.587 7.34662C135.382 6.82295 136.347 6.56111 137.48 6.56111C138.541 6.56111 139.465 6.79312 140.254 7.25714C141.043 7.72115 141.656 8.38403 142.094 9.24577C142.531 10.1009 142.75 11.1217 142.75 12.3083V22.0327H138.514V13.064C138.521 12.1293 138.282 11.4001 137.798 10.8765C137.314 10.3462 136.648 10.081 135.8 10.081C135.23 10.081 134.726 10.2036 134.288 10.4489C133.857 10.6942 133.519 11.0521 133.274 11.5228C133.036 11.9868 132.913 12.5469 132.906 13.2032Z" fill="#263238"/>
<path d="M154.212 6.75998V9.9418H145.015V6.75998H154.212ZM147.103 3.10089H151.338V17.3395C151.338 17.7306 151.398 18.0355 151.517 18.2543C151.637 18.4664 151.802 18.6156 152.015 18.7017C152.233 18.7879 152.485 18.831 152.77 18.831C152.969 18.831 153.168 18.8144 153.367 18.7813C153.566 18.7415 153.718 18.7117 153.824 18.6918L154.49 21.8438C154.278 21.9101 153.98 21.9863 153.596 22.0725C153.211 22.1653 152.744 22.2216 152.194 22.2415C151.173 22.2813 150.278 22.1454 149.509 21.8338C148.747 21.5223 148.153 21.0384 147.729 20.3821C147.305 19.7259 147.096 18.8973 147.103 17.8963V3.10089Z" fill="#263238"/>
</svg>
