<svg width="537" height="409" viewBox="0 0 537 409" fill="none" xmlns="http://www.w3.org/2000/svg">
<path d="M79.0484 367.509C183.579 422.164 353.059 422.164 457.59 367.509C562.12 312.854 562.12 224.364 457.59 169.76C353.059 115.156 183.579 115.106 79.0484 169.76C-25.482 224.415 -25.482 312.892 79.0484 367.509Z" fill="#E9ECEF"/>
<path d="M136.792 116.313L161.984 101.772L136.792 87.2317L111.371 101.772L136.792 116.313Z" stroke="#E9ECEF" stroke-width="1.08419" stroke-linecap="round" stroke-linejoin="round"/>
<path d="M117.23 101.785L136.805 45.2111V113.085L117.23 101.785Z" fill="#DEE2E6"/>
<path d="M136.804 113.085L156.366 101.785L136.804 45.2111V113.085Z" fill="#E9ECEF"/>
<path d="M106.007 134.057L131.199 119.516L106.007 104.975L80.5864 119.516L106.007 134.057Z" stroke="#E9ECEF" stroke-width="1.08419" stroke-linecap="round" stroke-linejoin="round"/>
<path d="M86.4458 119.529L106.007 35.5131V130.828L86.4458 119.529Z" fill="#DEE2E6"/>
<path d="M106.007 130.828L125.568 119.529L106.007 35.5131V130.828Z" fill="#E9ECEF"/>
<path d="M75.2226 151.801L100.415 137.26L75.2226 122.719L49.7891 137.26L75.2226 151.801Z" stroke="#E9ECEF" stroke-width="1.08419" stroke-linecap="round" stroke-linejoin="round"/>
<path d="M55.6611 137.273L75.2225 87.2317V148.572L55.6611 137.273Z" fill="#DEE2E6"/>
<path d="M75.2227 148.572L94.784 137.273L75.2227 87.2317V148.572Z" fill="#E9ECEF"/>
<path d="M44.4379 169.544L69.63 155.004L44.4379 140.463L19.0044 155.004L44.4379 169.544Z" stroke="#E9ECEF" stroke-width="1.08419" stroke-linecap="round" stroke-linejoin="round"/>
<path d="M24.8638 155.016L44.4378 70.0599V166.316L24.8638 155.016Z" fill="#DEE2E6"/>
<path d="M44.438 166.316L63.9993 155.016L44.438 70.0599V166.316Z" fill="#E9ECEF"/>
<path d="M380.183 96.9806L514.532 174.54" stroke="#E9ECEF" stroke-width="1.08419" stroke-miterlimit="10" stroke-linecap="round"/>
<path d="M514.532 166.316C514.37 156.58 513.687 146.859 512.486 137.196C511.215 126.698 508.673 108.979 498.568 103.132C488.463 97.2857 484.65 107.861 483.188 113.059C481.282 119.809 471.38 115.538 470.008 104.416C468.635 93.2946 467.733 57.858 455.861 51.0325C443.989 44.207 440.164 60.667 438.816 65.2682C436.16 74.3053 428.368 71.814 425.826 65.8274C423.284 59.8408 416.344 58.3791 413.726 66.8061C411.108 75.2331 409.493 84.9058 401.016 79.936C393.567 75.5763 396.986 67.6323 389.729 63.8573C383.984 60.8831 381.314 75.0679 381.314 89.418L514.532 166.316Z" fill="#DEE2E6"/>
<path d="M504.771 92.354C504.771 93.9047 503.373 94.3496 501.67 93.3709L491.501 87.4732C490.665 86.9994 489.951 86.3387 489.412 85.5427C488.874 84.7467 488.528 83.837 488.4 82.8848C488.4 81.3468 489.798 80.8892 491.501 81.8806L501.67 87.7783C502.505 88.2493 503.22 88.9076 503.758 89.7016C504.296 90.4955 504.643 91.4035 504.771 92.354Z" fill="#E9ECEF"/>
<path d="M463.03 42.4911C463.03 44.0418 461.645 44.4866 459.929 43.5079L449.76 37.6103C448.923 37.1388 448.206 36.4787 447.668 35.6823C447.129 34.8858 446.784 33.975 446.659 33.0219C446.659 31.4839 448.044 31.0263 449.76 32.0177L459.929 37.9154C460.765 38.3848 461.481 39.0427 462.02 39.837C462.558 40.6312 462.904 41.5399 463.03 42.4911Z" fill="#E9ECEF"/>
<path d="M429.97 51.668C429.97 53.2187 428.585 53.6635 426.881 52.6848L416.713 46.7872C415.875 46.3157 415.159 45.6556 414.621 44.8592C414.082 44.0627 413.737 43.1518 413.612 42.1987C413.612 40.6608 414.997 40.2032 416.713 41.1946L426.881 47.0922C427.715 47.5639 428.428 48.2227 428.964 49.0167C429.5 49.8107 429.844 50.7183 429.97 51.668Z" fill="#E9ECEF"/>
<path d="M398.626 54.7058C398.626 56.2565 397.241 56.7014 395.525 55.71L385.356 49.825C384.522 49.3505 383.809 48.6894 383.274 47.8933C382.738 47.0972 382.393 46.1879 382.268 45.2366C382.268 43.6986 383.653 43.241 385.356 44.2325L395.525 50.1174C396.361 50.5904 397.077 51.2509 397.615 52.0471C398.153 52.8432 398.499 53.7533 398.626 54.7058Z" fill="#E9ECEF"/>
<path d="M374.591 85.5285V1.5" stroke="#E9ECEF" stroke-width="1.08419" stroke-miterlimit="10" stroke-linecap="round"/>
<path d="M48.9373 271.393C48.9373 271.393 51.0219 252.734 45.2386 234.965C39.7986 218.162 28.8676 209.252 22.2455 206.582C9.72574 201.587 8.60722 215.378 17.9875 224.924C24.8638 231.94 41.4128 246.404 44.2599 270.935L48.9373 271.393Z" fill="#0D6EFD"/>
<path opacity="0.7" d="M48.9373 271.393C48.9373 271.393 51.0219 252.734 45.2386 234.965C39.7986 218.162 28.8676 209.252 22.2455 206.582C9.72574 201.587 8.60722 215.378 17.9875 224.924C24.8638 231.94 41.4128 246.404 44.2599 270.935L48.9373 271.393Z" fill="white"/>
<path d="M18.8645 210.434C26.4272 215.518 46.7511 230.198 47.4883 271.253" stroke="#F8F9FA" stroke-width="1.08419" stroke-miterlimit="10" stroke-linecap="round"/>
<path d="M43.6118 284.141C39.7224 265.33 31.7784 258.504 17.5809 251.234C11.5053 248.133 4.38747 244.676 1.81996 240.723C-0.747539 236.77 0.548923 231.457 9.29368 231.571C25.2707 231.787 43.472 251.043 45.8997 272.143L43.6118 284.141Z" fill="#0D6EFD"/>
<path opacity="0.8" d="M43.6118 284.141C39.7224 265.33 31.7784 258.504 17.5809 251.234C11.5053 248.133 4.38747 244.676 1.81996 240.723C-0.747539 236.77 0.548923 231.457 9.29368 231.571C25.2707 231.787 43.472 251.043 45.8997 272.143L43.6118 284.141Z" fill="white"/>
<path d="M7.94629 235.664C20.0085 237.304 39.0614 251.361 45.1115 276.337" stroke="#F8F9FA" stroke-width="1.08419" stroke-miterlimit="10" stroke-linecap="round"/>
<path d="M489.226 262.585C494.119 253.179 497.92 226.792 491.628 214.59C485.337 202.388 475.982 203.367 474.533 207.32C473.262 210.968 476.401 217.488 480.469 225.254C484.536 233.02 487.968 249.658 484.116 257.411L489.226 262.585Z" fill="#0D6EFD"/>
<path opacity="0.7" d="M489.226 262.585C494.119 253.179 497.92 226.792 491.628 214.59C485.337 202.388 475.982 203.367 474.533 207.32C473.262 210.968 476.401 217.488 480.469 225.254C484.536 233.02 487.968 249.658 484.116 257.411L489.226 262.585Z" fill="white"/>
<path d="M480.71 207.955C484.714 211.171 496.179 230.834 488.158 257.818" stroke="#F8F9FA" stroke-width="1.08419" stroke-miterlimit="10" stroke-linecap="round"/>
<path d="M487.675 272.549C484.727 266.652 478.27 256.89 482.668 250.192C487.065 243.494 491.667 249.417 495.2 245.044C498.733 240.672 494.692 233.605 497.742 229.792C503.64 222.293 507.91 230.999 512.537 229.855C515.88 229.029 519.604 221.619 529.226 222.521C538.848 223.424 538.365 231.05 534.081 234.634C529.798 238.219 524.714 241.79 528.018 247.167C530.942 251.933 532.454 260.742 522.451 264.161C512.893 267.427 517.621 271.571 516.096 276.248C514.571 280.926 505.546 285.362 495.95 281.752L487.675 272.549Z" fill="#0D6EFD"/>
<path opacity="0.8" d="M487.675 272.549C484.727 266.652 478.27 256.89 482.668 250.192C487.065 243.494 491.667 249.417 495.2 245.044C498.733 240.672 494.692 233.605 497.742 229.792C503.64 222.293 507.91 230.999 512.537 229.855C515.88 229.029 519.604 221.619 529.226 222.521C538.848 223.424 538.365 231.05 534.081 234.634C529.798 238.219 524.714 241.79 528.018 247.167C530.942 251.933 532.454 260.742 522.451 264.161C512.893 267.427 517.621 271.571 516.096 276.248C514.571 280.926 505.546 285.362 495.95 281.752L487.675 272.549Z" fill="white"/>
<path d="M530.548 226.843C520.125 229.639 495.162 249.925 493.052 275.384" stroke="#F8F9FA" stroke-width="1.08419" stroke-miterlimit="10" stroke-linecap="round"/>
<path d="M523.036 253.573C517.888 252.404 504.809 252.238 499.916 254.615" stroke="#F8F9FA" stroke-width="1.08419" stroke-miterlimit="10" stroke-linecap="round"/>
<path d="M502.826 232.029C502.826 232.029 506.639 239.413 506.093 245.629" stroke="#F8F9FA" stroke-width="1.08419" stroke-miterlimit="10" stroke-linecap="round"/>
<path d="M360.648 159.897C358.944 153.998 355.899 148.574 351.75 144.047C346.847 138.701 341.113 134.181 334.769 130.663C327.403 126.49 319.57 123.201 311.433 120.863C302.469 118.276 293.274 116.573 283.978 115.779C274.377 114.902 264.715 114.902 255.113 115.779C245.822 116.573 236.63 118.276 227.671 120.863C219.529 123.199 211.692 126.488 204.322 130.663C197.978 134.212 192.248 138.761 187.354 144.136C183.209 148.665 180.165 154.089 178.457 159.986C176.938 165.441 176.938 171.207 178.457 176.662C180.151 182.561 183.197 187.984 187.354 192.499C192.252 197.879 197.986 202.433 204.335 205.985C211.696 210.157 219.525 213.442 227.659 215.772C236.622 218.371 245.817 220.09 255.113 220.907C264.715 221.771 274.376 221.771 283.978 220.907C293.28 220.087 302.479 218.363 311.446 215.759C319.579 213.429 327.408 210.144 334.769 205.972C341.121 202.424 346.855 197.869 351.75 192.487C355.901 187.967 358.947 182.546 360.648 176.649C362.168 171.169 362.168 165.378 360.648 159.897Z" fill="#495057"/>
<path d="M177.313 159.923H361.779V169.328L177.313 168.807V159.923Z" fill="#495057"/>
<path d="M255.113 107.352L269.527 159.897L227.671 112.487C236.629 109.883 245.82 108.163 255.113 107.352Z" fill="#343A40"/>
<path d="M283.978 107.352L269.565 159.897L255.151 107.327C264.741 106.461 274.39 106.469 283.978 107.352Z" fill="#343A40"/>
<path d="M311.433 112.487L269.565 159.897L283.978 107.327C293.276 108.146 302.472 109.874 311.433 112.487Z" fill="#343A40"/>
<path d="M351.737 135.747C355.883 140.28 358.928 145.709 360.635 151.61L269.577 159.897L351.737 135.747Z" fill="#343A40"/>
<path d="M360.647 151.623C362.154 157.075 362.154 162.834 360.647 168.286L269.577 159.897L360.647 151.623Z" fill="#343A40"/>
<path d="M360.647 168.286C358.944 174.185 355.899 179.61 351.75 184.136L269.577 159.986L360.647 168.286Z" fill="#343A40"/>
<path d="M351.75 184.136C346.854 189.514 341.12 194.064 334.769 197.609L269.552 159.897L351.75 184.136Z" fill="#343A40"/>
<path d="M269.565 159.961L311.445 207.409C302.478 209.997 293.278 211.7 283.978 212.493L269.552 159.923L269.565 159.961Z" fill="#343A40"/>
<path d="M269.552 159.973L283.978 212.544C274.377 213.421 264.715 213.421 255.113 212.544L269.552 159.973Z" fill="#343A40"/>
<path d="M269.527 159.961L255.088 212.531C245.788 211.738 236.588 210.035 227.62 207.447L269.527 159.961Z" fill="#343A40"/>
<path d="M269.527 159.961L227.582 207.409C219.45 205.069 211.622 201.779 204.259 197.609L269.527 159.961Z" fill="#343A40"/>
<path d="M269.514 159.897L187.341 184.047C183.187 179.525 180.141 174.099 178.444 168.197L269.514 159.897Z" fill="#343A40"/>
<path d="M269.514 159.897L178.457 168.286C176.938 162.835 176.938 157.073 178.457 151.623L269.514 159.897Z" fill="#343A40"/>
<path d="M269.514 159.897L178.457 151.572C180.167 145.672 183.211 140.245 187.354 135.709L269.514 159.897Z" fill="#343A40"/>
<path d="M204.322 122.3L269.514 159.897L187.354 135.747C192.25 130.381 197.98 125.84 204.322 122.3Z" fill="#343A40"/>
<path d="M334.769 122.3L269.565 159.897L311.433 112.462C319.573 114.806 327.407 118.109 334.769 122.3Z" fill="#343A40"/>
<path d="M334.769 122.3C341.114 125.837 346.844 130.378 351.737 135.747L269.577 159.897L334.769 122.3Z" fill="#343A40"/>
<path d="M269.527 159.897L204.297 197.558C197.948 194.01 192.214 189.461 187.316 184.085L269.488 159.935L269.527 159.897Z" fill="#343A40"/>
<path d="M227.671 112.487L269.527 159.897L204.322 122.249C211.691 118.082 219.529 114.805 227.671 112.487Z" fill="#343A40"/>
<path d="M269.565 159.961L334.769 197.609C327.406 201.779 319.578 205.069 311.445 207.409L269.565 159.961Z" fill="#343A40"/>
<path d="M213.766 106.869L265.561 136.764L263.019 94.5021C243.966 95.3155 227.786 99.3829 213.766 106.869Z" fill="#0D6EFD"/>
<path opacity="0.2" d="M213.766 106.869L265.561 136.764L263.019 94.5021C243.966 95.3155 227.786 99.3829 213.766 106.869Z" fill="white"/>
<path d="M265.561 136.764V153.084L213.766 123.177V106.869L265.561 136.764Z" fill="#0D6EFD"/>
<path opacity="0.1" d="M265.561 136.764V153.084L213.766 123.177V106.869L265.561 136.764Z" fill="black"/>
<path d="M332.71 111.064L273.263 137.883V154.19L332.71 127.371V111.064Z" fill="#0D6EFD"/>
<path opacity="0.3" d="M332.71 111.064L273.263 137.883V154.19L332.71 127.371V111.064Z" fill="black"/>
<path d="M332.71 111.064C316.708 100.171 295.367 94.4258 270.632 94.3495L272.221 120.774L273.263 137.883L332.71 111.064Z" fill="#0D6EFD"/>
<path opacity="0.1" d="M332.71 111.064C316.708 100.171 295.367 94.4258 270.632 94.3495L272.221 120.774L273.263 137.883L332.71 111.064Z" fill="black"/>
<path d="M270.62 94.3495V110.657L273.264 154.19V137.883L270.62 94.3495Z" fill="#343A40"/>
<path d="M285.351 169.29L315.742 198.524C317.445 197.876 319.021 197.253 320.826 196.389C341.76 186.958 352.704 172.824 352.691 158.563V142.42C350.39 136.281 344.061 136.294 337.438 130.892L275.374 158.855L274.751 159.134L285.351 169.29Z" fill="#0D6EFD"/>
<path opacity="0.6" d="M285.351 169.29L315.742 198.524C317.445 197.876 319.021 197.253 320.826 196.389C341.76 186.958 352.704 172.824 352.691 158.563V142.42C350.39 136.281 344.061 136.294 337.438 130.892L275.374 158.855L274.751 159.134L285.351 169.29Z" fill="white"/>
<path d="M285.351 152.983L315.742 182.217C317.445 181.568 319.021 180.946 320.826 180.069C355.869 164.244 362.885 135.264 337.464 114.534L275.399 142.497L274.776 142.776L285.351 152.983Z" fill="#0D6EFD"/>
<path opacity="0.8" d="M285.351 152.983L315.742 182.217C317.445 181.568 319.021 180.946 320.826 180.069C355.869 164.244 362.885 135.264 337.464 114.534L275.399 142.497L274.776 142.776L285.351 152.983Z" fill="white"/>
<path d="M315.691 198.499V182.178L274.712 142.814V159.122L315.691 198.499Z" fill="#0D6EFD"/>
<path opacity="0.6" d="M315.691 198.499V182.178L274.712 142.814V159.122L315.691 198.499Z" fill="white"/>
<path d="M208.377 126.291C199.645 131.794 189.947 135.264 186.413 141.95V158.27C186.413 166.773 190.366 175.391 198.564 183.272C210.004 194.241 228.116 201.994 249.635 205.083C269.549 208.022 289.867 206.543 309.145 200.748V184.441L282.39 175.035L266.68 159.897L208.377 126.291Z" fill="#0D6EFD"/>
<path opacity="0.6" d="M208.377 126.291C199.645 131.794 189.947 135.264 186.413 141.95V158.27C186.413 166.773 190.366 175.391 198.564 183.272C210.004 194.241 228.116 201.994 249.635 205.083C269.549 208.022 289.867 206.543 309.145 200.748V184.441L282.39 175.035L266.68 159.897L208.377 126.291Z" fill="black"/>
<path d="M208.377 109.983C183.286 125.77 179.244 148.394 198.564 166.951C210.004 177.933 228.116 185.674 249.635 188.775C269.549 191.708 289.865 190.229 309.145 184.441L282.389 158.728L266.679 143.641L208.377 109.983Z" fill="#0D6EFD"/>
<path opacity="0.3" d="M208.377 109.983C183.286 125.77 179.244 148.394 198.564 166.951C210.004 177.933 228.116 185.674 249.635 188.775C269.549 191.708 289.865 190.229 309.145 184.441L282.389 158.728L266.679 143.641L208.377 109.983Z" fill="black"/>
<path d="M499.509 287.827C497.805 281.929 494.76 276.504 490.612 271.977C485.719 266.6 479.989 262.05 473.643 258.504C466.277 254.332 458.444 251.042 450.307 248.705C441.343 246.118 432.148 244.415 422.852 243.621C413.251 242.744 403.589 242.744 393.987 243.621C384.696 244.416 375.505 246.119 366.545 248.705C358.408 251.042 350.575 254.332 343.209 258.504C336.858 262.049 331.124 266.599 326.228 271.977C322.083 276.507 319.039 281.93 317.331 287.827C315.812 293.282 315.812 299.048 317.331 304.503C319.025 310.402 322.071 315.825 326.228 320.341C331.126 325.72 336.86 330.274 343.209 333.826C350.572 337.993 358.401 341.278 366.533 343.613C375.502 346.194 384.701 347.897 394 348.698C403.602 349.562 413.263 349.562 422.865 348.698C432.164 347.898 441.363 346.196 450.332 343.613C458.468 341.284 466.298 337.995 473.656 333.814C480.011 330.27 485.75 325.72 490.65 320.341C494.797 315.818 497.842 310.398 499.547 304.503C501.047 299.044 501.034 293.28 499.509 287.827Z" fill="#495057"/>
<path d="M316.174 287.815H500.64V297.22L316.174 296.699V287.815Z" fill="#495057"/>
<path d="M393.974 235.244L408.401 287.815L366.532 240.379C375.49 237.776 384.681 236.056 393.974 235.244Z" fill="#343A40"/>
<path d="M422.84 235.244L408.426 287.815L394 235.244C403.593 234.369 413.246 234.369 422.84 235.244Z" fill="#343A40"/>
<path d="M450.294 240.379L408.426 287.815L422.84 235.244C432.137 236.055 441.332 237.775 450.294 240.379Z" fill="#343A40"/>
<path d="M490.599 263.652C494.747 268.183 497.792 273.612 499.496 279.515L408.439 287.84L490.599 263.652Z" fill="#343A40"/>
<path d="M499.509 279.515C501.021 284.966 501.021 290.727 499.509 296.178L408.451 287.84L499.509 279.515Z" fill="#343A40"/>
<path d="M499.509 296.178C497.802 302.075 494.757 307.499 490.612 312.028L408.439 287.878L499.509 296.178Z" fill="#343A40"/>
<path d="M490.624 312.028C485.718 317.4 479.98 321.949 473.63 325.501L408.413 287.84L490.624 312.028Z" fill="#343A40"/>
<path d="M408.426 287.853L450.307 335.301C441.338 337.883 432.139 339.586 422.84 340.385L408.413 287.815L408.426 287.853Z" fill="#343A40"/>
<path d="M408.413 287.866L422.839 340.385C413.237 341.256 403.576 341.256 393.974 340.385L408.413 287.866Z" fill="#343A40"/>
<path d="M408.401 287.853L393.974 340.385C384.675 339.585 375.476 337.882 366.507 335.301L408.401 287.853Z" fill="#343A40"/>
<path d="M408.401 287.853L366.456 335.301C358.326 332.956 350.498 329.667 343.133 325.501L408.401 287.853Z" fill="#343A40"/>
<path d="M408.375 287.84L326.202 311.99C322.048 307.468 319.002 302.042 317.305 296.14L408.375 287.84Z" fill="#343A40"/>
<path d="M408.375 287.84L317.318 296.178C315.799 290.728 315.799 284.965 317.318 279.515L408.375 287.84Z" fill="#343A40"/>
<path d="M408.375 287.827L317.318 279.502C319.025 273.601 322.07 268.173 326.215 263.639L408.375 287.827Z" fill="#343A40"/>
<path d="M343.196 250.141L408.375 287.777L326.215 263.627C331.11 258.244 336.845 253.69 343.196 250.141Z" fill="#343A40"/>
<path d="M473.63 250.141L408.426 287.777L450.294 240.341C458.433 242.674 466.267 245.963 473.63 250.141Z" fill="#343A40"/>
<path d="M473.63 250.141C479.976 253.682 485.707 258.228 490.599 263.601L408.451 287.751L473.63 250.141Z" fill="#343A40"/>
<path d="M408.401 287.827L343.183 325.501C336.838 321.949 331.104 317.4 326.202 312.028L408.375 287.878L408.401 287.827Z" fill="#343A40"/>
<path d="M366.533 240.379L408.401 287.815L343.196 250.141C350.562 245.976 358.395 242.7 366.533 240.379Z" fill="#343A40"/>
<path d="M408.426 287.853L473.63 325.501C466.267 329.672 458.439 332.961 450.307 335.301L408.426 287.853Z" fill="#343A40"/>
<path d="M327.156 267.186V293.598C326.486 291.185 326.144 288.692 326.139 286.188V267.186H327.156Z" fill="#0D6EFD"/>
<path opacity="0.3" d="M327.156 267.186V293.598C326.486 291.185 326.144 288.692 326.139 286.188V267.186H327.156Z" fill="black"/>
<path d="M408.375 267.211L327.156 274.634C325.808 269.773 325.808 264.637 327.156 259.776L408.375 267.211Z" fill="#0D6EFD"/>
<path d="M408.375 267.186L327.156 259.75C328.682 254.487 331.4 249.646 335.1 245.603L408.375 267.186Z" fill="#0D6EFD"/>
<path d="M350.238 233.617L408.375 267.186L335.1 245.578C339.471 240.804 344.582 236.765 350.238 233.617Z" fill="#0D6EFD"/>
<path d="M371.057 224.873L408.401 267.173L350.238 233.618C356.808 229.89 363.797 226.955 371.057 224.873Z" fill="#0D6EFD"/>
<path d="M395.538 220.297L408.401 267.173L371.057 224.873C379.048 222.548 387.247 221.016 395.538 220.297Z" fill="#0D6EFD"/>
<path d="M421.352 220.297L408.426 267.173L395.563 220.297C404.141 219.507 412.774 219.507 421.352 220.297Z" fill="#0D6EFD"/>
<path d="M445.769 224.873L408.426 267.173L421.353 220.297C429.622 221.02 437.8 222.552 445.769 224.873Z" fill="#0D6EFD"/>
<g opacity="0.2">
<path d="M408.375 267.211L327.156 274.634C325.808 269.773 325.808 264.637 327.156 259.776L408.375 267.211Z" fill="white"/>
<path d="M408.375 267.186L327.156 259.75C328.682 254.487 331.4 249.646 335.1 245.603L408.375 267.186Z" fill="white"/>
<path d="M350.238 233.617L408.375 267.186L335.1 245.578C339.471 240.804 344.582 236.765 350.238 233.617Z" fill="white"/>
<path d="M371.057 224.873L408.401 267.173L350.238 233.618C356.808 229.89 363.797 226.955 371.057 224.873Z" fill="white"/>
<path d="M395.538 220.297L408.401 267.173L371.057 224.873C379.048 222.548 387.247 221.016 395.538 220.297Z" fill="white"/>
<path d="M421.353 220.297L408.426 267.173L395.563 220.297C404.142 219.507 412.774 219.507 421.353 220.297Z" fill="white"/>
<path d="M445.769 224.873L408.426 267.173L421.353 220.297C429.622 221.02 437.8 222.552 445.769 224.873Z" fill="white"/>
</g>
<path d="M477.278 279.871L465.089 291.31L455.823 300.068L446.989 308.38L445.807 309.486V328.463C453.067 326.382 460.055 323.451 466.627 319.731C472.289 316.555 477.405 312.491 481.778 307.694C485.476 303.664 488.187 298.83 489.696 293.573C490.37 291.16 490.716 288.667 490.726 286.162V267.198L477.278 279.871Z" fill="#0D6EFD"/>
<path opacity="0.3" d="M477.278 279.871L465.089 291.31L455.823 300.068L446.989 308.38L445.807 309.486V328.463C453.067 326.382 460.055 323.451 466.627 319.731C472.289 316.555 477.405 312.491 481.778 307.694C485.476 303.664 488.187 298.83 489.696 293.573C490.37 291.16 490.716 288.667 490.726 286.162V267.198L477.278 279.871Z" fill="black"/>
<path d="M481.727 245.629C485.421 249.675 488.139 254.515 489.671 259.775L408.439 267.211L481.727 245.629Z" fill="#0D6EFD"/>
<path d="M490.688 267.224C490.678 269.733 490.331 272.229 489.658 274.647L465.051 272.384L408.439 267.198L477.24 260.843L489.658 259.712C490.338 262.158 490.685 264.685 490.688 267.224Z" fill="#0D6EFD"/>
<path d="M489.658 274.647C488.145 279.902 485.435 284.736 481.74 288.768L455.785 281.142L408.439 267.16L465.051 272.346L489.658 274.647Z" fill="#0D6EFD"/>
<path d="M481.74 288.768C477.366 293.566 472.251 297.63 466.589 300.805L446.951 289.442L408.451 267.224L455.798 281.205L481.74 288.768Z" fill="#0D6EFD"/>
<path d="M466.589 233.618L408.426 267.198L445.769 224.898C453.027 226.977 460.015 229.904 466.589 233.618Z" fill="#0D6EFD"/>
<path d="M466.589 233.617C472.246 236.784 477.357 240.84 481.727 245.629L408.439 267.237L466.589 233.617Z" fill="#0D6EFD"/>
<path d="M466.589 300.805C460.017 304.521 453.028 307.448 445.769 309.524L408.451 267.224L446.951 289.442L466.589 300.805Z" fill="#0D6EFD"/>
<g opacity="0.2">
<path d="M481.727 245.629C485.421 249.675 488.139 254.515 489.671 259.775L408.439 267.211L481.727 245.629Z" fill="white"/>
<path d="M490.688 267.224C490.678 269.733 490.331 272.229 489.658 274.647L465.051 272.384L408.439 267.198L477.24 260.843L489.658 259.712C490.338 262.158 490.685 264.685 490.688 267.224Z" fill="white"/>
<path d="M489.658 274.647C488.145 279.902 485.435 284.736 481.74 288.768L455.785 281.142L408.439 267.16L465.051 272.346L489.658 274.647Z" fill="white"/>
<path d="M481.74 288.768C477.366 293.566 472.251 297.63 466.589 300.805L446.951 289.442L408.451 267.224L455.798 281.205L481.74 288.768Z" fill="white"/>
<path d="M466.589 233.618L408.426 267.198L445.769 224.898C453.027 226.977 460.015 229.904 466.589 233.618Z" fill="white"/>
<path d="M466.589 233.617C472.246 236.784 477.357 240.84 481.727 245.629L408.439 267.237L466.589 233.617Z" fill="white"/>
<path d="M466.589 300.805C460.017 304.521 453.028 307.448 445.769 309.524L408.451 267.224L446.951 289.442L466.589 300.805Z" fill="white"/>
</g>
<path d="M445.782 309.537V328.513L408.401 286.162V267.173L445.782 309.537Z" fill="#343A40"/>
<path d="M408.401 286.162L327.156 293.623V274.634L408.401 267.173V286.162Z" fill="#0D6EFD"/>
<path opacity="0.1" d="M408.401 286.162L327.156 293.623V274.634L408.401 267.173V286.162Z" fill="black"/>
<path d="M221.799 287.827C220.095 281.929 217.05 276.504 212.902 271.977C208.008 266.603 202.278 262.053 195.933 258.504C188.564 254.329 180.726 251.04 172.584 248.705C163.625 246.118 154.434 244.415 145.143 243.621C135.541 242.744 125.879 242.744 116.277 243.621C106.982 244.416 97.7866 246.119 88.8228 248.705C80.6771 251.04 72.8355 254.33 65.4611 258.504C59.1151 262.05 53.3848 266.6 48.4927 271.977C44.3444 276.504 41.2992 281.929 39.5954 287.827C38.089 293.284 38.089 299.047 39.5954 304.503C41.2963 310.4 44.3419 315.821 48.4927 320.341C53.3839 325.722 59.1141 330.276 65.4611 333.826C72.822 337.998 80.6511 341.283 88.7847 343.613C97.7537 346.196 106.953 347.898 116.252 348.698C125.854 349.562 135.515 349.562 145.117 348.698C154.416 347.898 163.615 346.196 172.584 343.613C180.72 341.284 188.55 337.995 195.908 333.814C202.264 330.271 208.003 325.721 212.902 320.341C217.053 315.821 220.098 310.4 221.799 304.503C223.306 299.047 223.306 293.284 221.799 287.827Z" fill="#495057"/>
<path d="M38.4514 287.815H222.918V297.22L38.4514 296.699V287.815Z" fill="#495057"/>
<path d="M116.303 235.244L130.716 287.815L88.8481 240.379C97.8102 237.776 107.006 236.056 116.303 235.244Z" fill="#343A40"/>
<path d="M145.117 235.244L130.704 287.815L116.303 235.244C125.888 234.37 135.532 234.37 145.117 235.244Z" fill="#343A40"/>
<path d="M172.559 240.379L130.704 287.815L145.117 235.244C154.41 236.055 163.602 237.775 172.559 240.379Z" fill="#343A40"/>
<path d="M212.902 263.652C217.05 268.183 220.095 273.612 221.799 279.515L130.729 287.84L212.902 263.652Z" fill="#343A40"/>
<path d="M221.799 279.515C223.305 284.967 223.305 290.726 221.799 296.178L130.729 287.84L221.799 279.515Z" fill="#343A40"/>
<path d="M221.799 296.178C220.096 302.077 217.051 307.502 212.902 312.028L130.729 287.878L221.799 296.178Z" fill="#343A40"/>
<path d="M212.902 312.028C208 317.4 202.267 321.949 195.921 325.501L130.691 287.84L212.902 312.028Z" fill="#343A40"/>
<path d="M130.704 287.853L172.584 335.301C163.615 337.883 154.416 339.586 145.117 340.385L130.678 287.815L130.704 287.853Z" fill="#343A40"/>
<path d="M130.678 287.866L145.117 340.385C135.532 341.253 125.888 341.253 116.303 340.385L130.678 287.866Z" fill="#343A40"/>
<path d="M130.665 287.853L116.303 340.385C107.004 339.586 97.8044 337.883 88.8354 335.301L130.665 287.853Z" fill="#343A40"/>
<path d="M130.665 287.853L88.721 335.301C80.6107 332.956 72.8039 329.667 65.4609 325.501L130.665 287.853Z" fill="#343A40"/>
<path d="M130.653 287.84L48.4801 311.99C44.3313 307.464 41.2861 302.039 39.5828 296.14L130.653 287.84Z" fill="#343A40"/>
<path d="M130.653 287.84L39.5827 296.178C38.0766 290.726 38.0766 284.967 39.5827 279.515L130.653 287.84Z" fill="#343A40"/>
<path d="M130.653 287.827L39.5828 279.502C41.2865 273.6 44.3315 268.171 48.4801 263.639L130.653 287.827Z" fill="#343A40"/>
<path d="M65.4611 250.141L130.653 287.777L48.4927 263.627C53.3829 258.244 59.1134 253.69 65.4611 250.141Z" fill="#343A40"/>
<path d="M195.908 250.141L130.704 287.777L172.559 240.341C180.703 242.671 188.541 245.961 195.908 250.141Z" fill="#343A40"/>
<path d="M195.908 250.141C202.264 253.699 208.003 258.261 212.902 263.652L130.742 287.802L195.908 250.141Z" fill="#343A40"/>
<path d="M130.665 287.827L65.4611 325.501C59.113 321.952 53.379 317.403 48.48 312.028L130.653 287.878L130.665 287.827Z" fill="#343A40"/>
<path d="M88.7973 240.379L130.665 287.815L65.4609 250.141C72.8266 245.976 80.6601 242.7 88.7973 240.379Z" fill="#343A40"/>
<path d="M130.704 287.853L195.908 325.501C188.545 329.672 180.717 332.961 172.584 335.301L130.704 287.853Z" fill="#343A40"/>
<path d="M155.209 255.225L165.721 243.303C165.721 229.321 148.638 228.978 141.088 228.305C133.538 227.631 120.586 223.297 120.586 239.21L124.196 252.378C134.619 251.708 145.083 252.669 155.209 255.225Z" fill="#0D6EFD"/>
<path opacity="0.6" d="M155.209 255.225L165.721 243.303C165.721 229.321 148.638 228.978 141.088 228.305C133.538 227.631 120.586 223.297 120.586 239.21L124.196 252.378C134.619 251.708 145.083 252.669 155.209 255.225Z" fill="white"/>
<path d="M155.209 236.503L165.721 224.593C151.002 220.763 135.754 219.38 120.586 220.5L124.196 233.618C134.621 232.96 145.085 233.934 155.209 236.503Z" fill="#0D6EFD"/>
<path opacity="0.8" d="M155.209 236.503L165.721 224.593C151.002 220.763 135.754 219.38 120.586 220.5L124.196 233.618C134.621 232.96 145.085 233.934 155.209 236.503Z" fill="white"/>
<path d="M124.196 233.668V252.404L120.586 239.236V220.5L124.196 233.668Z" fill="#0D6EFD"/>
<path d="M165.721 224.593L155.209 236.503V255.251L165.721 243.328V224.593Z" fill="#0D6EFD"/>
<g opacity="0.6">
<path d="M124.196 233.668V252.404L120.586 239.236V220.5L124.196 233.668Z" fill="white"/>
<path d="M165.721 224.593L155.209 236.503V255.251L165.721 243.328V224.593Z" fill="white"/>
</g>
<path d="M160.344 238.015V256.75C164.73 258.166 168.963 260.019 172.978 262.279C176.483 264.269 179.702 266.723 182.549 269.575L203.166 263.512C199.066 259.328 194.398 255.743 189.299 252.861C183.668 249.633 177.643 236.541 160.344 238.015Z" fill="#0D6EFD"/>
<path opacity="0.6" d="M160.344 238.015V256.75C164.73 258.166 168.963 260.019 172.978 262.279C176.483 264.269 179.702 266.723 182.549 269.575L203.166 263.512C199.066 259.328 194.398 255.743 189.299 252.861C183.668 249.633 177.643 236.541 160.344 238.015Z" fill="black"/>
<path d="M170.856 226.118L160.344 238.015C164.734 239.42 168.968 241.273 172.978 243.544C176.483 245.534 179.702 247.988 182.549 250.84L203.166 244.777C199.073 240.586 194.404 236.999 189.299 234.126C183.455 230.805 177.272 228.12 170.856 226.118Z" fill="#0D6EFD"/>
<path opacity="0.3" d="M170.856 226.118L160.344 238.015C164.734 239.42 168.968 241.273 172.978 243.544C176.483 245.534 179.702 247.988 182.549 250.84L203.166 244.777C199.073 240.586 194.404 236.999 189.299 234.126C183.455 230.805 177.272 228.12 170.856 226.118Z" fill="black"/>
<path d="M182.549 250.84L203.166 244.765V263.512L182.549 269.575V250.84Z" fill="#0D6EFD"/>
<path opacity="0.6" d="M182.549 250.84L203.166 244.765V263.512L182.549 269.575V250.84Z" fill="black"/>
<path d="M213.512 267.465H206.547C206.292 267.135 206.076 266.804 205.822 266.474L185.18 253.763V272.511C189.578 278.167 191.243 284.345 190.099 290.408L212.902 292.53C213.288 290.64 213.479 288.715 213.474 286.785L213.512 267.465Z" fill="#0D6EFD"/>
<path opacity="0.6" d="M213.512 267.465H206.547C206.292 267.135 206.076 266.804 205.822 266.474L185.18 253.763V272.511C189.578 278.167 191.243 284.345 190.099 290.408L212.902 292.53C213.288 290.64 213.479 288.715 213.474 286.785L213.512 267.465Z" fill="black"/>
<path d="M190.087 271.749L212.902 273.795C214.758 264.987 212.406 255.924 205.809 247.739L185.168 253.802C189.566 259.458 191.294 265.648 190.087 271.749Z" fill="#0D6EFD"/>
<path opacity="0.3" d="M190.087 271.749L212.902 273.795C214.758 264.987 212.406 255.924 205.809 247.739L185.168 253.802C189.566 259.458 191.294 265.648 190.087 271.749Z" fill="black"/>
<path d="M212.902 273.795V292.543L190.087 290.446V271.711L212.902 273.795Z" fill="#0D6EFD"/>
<path opacity="0.6" d="M212.902 273.795V292.543L190.087 290.446V271.711L212.902 273.795Z" fill="black"/>
<path d="M118.502 252.937V234.189C105.791 228.33 82.1244 234.278 74.1931 251.73L90.5133 261.161C99.2793 256.777 108.757 253.992 118.502 252.937Z" fill="#0D6EFD"/>
<path opacity="0.3" d="M118.502 252.937V234.189C105.791 228.33 82.1244 234.278 74.1931 251.73L90.5133 261.161C99.2793 256.777 108.757 253.992 118.502 252.937Z" fill="black"/>
<path d="M118.502 234.189L114.879 220.983C99.5122 222.712 85.4418 226.945 74.2058 232.995L90.526 242.413C99.2881 238.03 108.762 235.246 118.502 234.189Z" fill="#0D6EFD"/>
<path opacity="0.1" d="M118.502 234.189L114.879 220.983C99.5122 222.712 85.4418 226.945 74.2058 232.995L90.526 242.413C99.2881 238.03 108.762 235.246 118.502 234.189Z" fill="black"/>
<path d="M90.5133 242.413V261.161L74.1931 251.73V232.995L90.5133 242.413Z" fill="#343A40"/>
<path d="M73.4432 244.777L70.0876 254.069C59.1185 260.856 52.1914 269.029 49.3442 277.583L72.223 279.667C74.3202 273.808 79.0993 268.228 86.4968 263.525V244.777H73.4432Z" fill="#0D6EFD"/>
<path opacity="0.3" d="M73.4432 244.777L70.0876 254.069C59.1185 260.856 52.1914 269.029 49.3442 277.583L72.223 279.667C74.3202 273.808 79.0993 268.228 86.4968 263.525V244.777H73.4432Z" fill="black"/>
<path d="M86.4459 244.777L70.0876 235.333C59.1185 242.108 52.1914 250.294 49.3442 258.835L72.223 260.932C74.2694 255.073 79.0485 249.48 86.4459 244.777Z" fill="#0D6EFD"/>
<path opacity="0.1" d="M86.4459 244.777L70.0876 235.333C59.1185 242.108 52.1914 250.294 49.3442 258.835L72.223 260.932C74.2694 255.073 79.0485 249.48 86.4459 244.777Z" fill="black"/>
<path d="M49.3442 258.835V277.583L72.1721 279.667V260.932L49.3442 258.835Z" fill="#343A40"/>
<path d="M71.2697 282.959V264.211L64.4824 263.601L47.8572 267.936V286.658C47.9637 294.097 50.6605 301.266 55.4834 306.931L76.1251 300.868C71.8163 295.212 70.1385 289.022 71.2697 282.959Z" fill="#0D6EFD"/>
<path opacity="0.3" d="M71.2697 282.959V264.211L64.4824 263.601L47.8572 267.936V286.658C47.9637 294.097 50.6605 301.266 55.4834 306.931L76.1251 300.868C71.8163 295.212 70.1385 289.022 71.2697 282.959Z" fill="black"/>
<path d="M55.5596 288.196L76.2013 282.12V300.868L55.5596 306.931V288.196Z" fill="#343A40"/>
<path d="M71.2825 264.211L48.4038 262.127C46.5481 270.948 48.8995 279.998 55.4962 288.196L76.1379 282.12C71.8163 276.464 70.1386 270.274 71.2825 264.211Z" fill="#0D6EFD"/>
<path opacity="0.1" d="M71.2825 264.211L48.4038 262.127C46.5481 270.948 48.8995 279.998 55.4962 288.196L76.1379 282.12C71.8163 276.464 70.1386 270.274 71.2825 264.211Z" fill="black"/>
<path d="M95.6991 306.906C86.0265 301.326 81.1965 294.017 81.1965 286.709V267.936H180.172V286.671C180.172 293.992 175.343 301.3 165.67 306.88C146.35 318.065 115.032 318.065 95.6991 306.906Z" fill="#495057"/>
<path d="M130.691 296.534C158.019 296.534 180.172 283.741 180.172 267.961C180.172 252.181 158.019 239.388 130.691 239.388C103.363 239.388 81.2092 252.181 81.2092 267.961C81.2092 283.741 103.363 296.534 130.691 296.534Z" fill="#343A40"/>
<path d="M90.5132 312.269V309.88L58.1907 291.157V309.88C62.2912 314.068 66.9642 317.654 72.0704 320.531C77.914 323.852 84.097 326.537 90.5132 328.539L101.012 316.642C97.4014 315.467 93.8906 314.005 90.5132 312.269Z" fill="#0D6EFD"/>
<path opacity="0.3" d="M90.5132 312.269V309.88L58.1907 291.157V309.88C62.2912 314.068 66.9642 317.654 72.0704 320.531C77.914 323.852 84.097 326.537 90.5132 328.539L101.012 316.642C97.4014 315.467 93.8906 314.005 90.5132 312.269Z" fill="black"/>
<path d="M88.3398 292.378C84.8315 290.393 81.6078 287.943 78.7562 285.095L58.1399 291.158C62.2437 295.342 66.9162 298.927 72.0197 301.809C77.8658 305.125 84.0482 307.809 90.4625 309.816L100.961 297.907C96.5755 296.502 92.346 294.649 88.3398 292.378Z" fill="#0D6EFD"/>
<path opacity="0.1" d="M88.3398 292.378C84.8315 290.393 81.6078 287.943 78.7562 285.095L58.1399 291.158C62.2437 295.342 66.9162 298.927 72.0197 301.809C77.8658 305.125 84.0482 307.809 90.4625 309.816L100.961 297.907C96.5755 296.502 92.346 294.649 88.3398 292.378Z" fill="black"/>
<path d="M90.5132 328.552V309.816L101.012 297.907V316.655L90.5132 328.552Z" fill="#343A40"/>
<path d="M95.6482 311.329V330.077C110.367 333.907 125.615 335.29 140.783 334.17V315.434L95.6482 311.329Z" fill="#0D6EFD"/>
<path opacity="0.1" d="M95.6482 311.329V330.077C110.367 333.907 125.615 335.29 140.783 334.17V315.434L95.6482 311.329Z" fill="black"/>
<path d="M106.134 299.419L95.6228 311.329C110.342 315.158 125.589 316.545 140.757 315.434L137.173 302.254C126.742 302.93 116.27 301.974 106.134 299.419Z" fill="#0D6EFD"/>
<path opacity="0.2" d="M106.134 299.419L95.6228 311.329C110.342 315.158 125.589 316.545 140.757 315.434L137.173 302.254C126.742 302.93 116.27 301.974 106.134 299.419Z" fill="white"/>
<path d="M174.923 309.88L191.294 319.336C202.263 312.562 209.19 304.376 212.038 295.822V277.087L189.159 293.738C187.1 299.597 182.321 305.19 174.923 309.88Z" fill="#0D6EFD"/>
<path opacity="0.1" d="M174.923 309.88L191.294 319.336C202.263 312.562 209.19 304.376 212.038 295.822V277.087L189.159 293.738C187.1 299.597 182.321 305.19 174.923 309.88Z" fill="black"/>
<path d="M174.923 291.145L191.294 300.601C202.263 293.814 209.19 285.641 212.038 277.087L189.159 275.003C187.1 280.862 182.321 286.442 174.923 291.145Z" fill="#0D6EFD"/>
<path opacity="0.2" d="M174.923 291.145L191.294 300.601C202.263 293.814 209.19 285.641 212.038 277.087L189.159 275.003C187.1 280.862 182.321 286.442 174.923 291.145Z" fill="white"/>
<path d="M191.281 300.601V319.337L174.923 309.893V291.145L191.281 300.601Z" fill="#0D6EFD"/>
<path opacity="0.3" d="M191.281 300.601V319.337L174.923 309.893V291.145L191.281 300.601Z" fill="black"/>
<path d="M146.49 314.964V320.048C145.282 320.239 144.088 320.404 142.867 320.544L146.49 333.737C161.298 332.085 175.457 328.081 187.163 321.751V302.953L146.49 314.964Z" fill="#0D6EFD"/>
<path opacity="0.1" d="M146.49 314.964V320.048C145.282 320.239 144.088 320.404 142.867 320.544L146.49 333.737C161.298 332.085 175.457 328.081 187.163 321.751V302.953L146.49 314.964Z" fill="black"/>
<path d="M142.867 301.745L146.49 314.964C161.298 313.312 175.457 309.321 187.163 302.991L170.805 293.534C162.061 297.927 152.597 300.708 142.867 301.745Z" fill="#0D6EFD"/>
<path opacity="0.2" d="M142.867 301.745L146.49 314.964C161.298 313.312 175.457 309.321 187.163 302.991L170.805 293.534C162.061 297.927 152.597 300.708 142.867 301.745Z" fill="white"/>
<path d="M146.49 314.926V333.661L142.867 320.493V301.745L146.49 314.926Z" fill="#0D6EFD"/>
<path opacity="0.3" d="M146.49 314.926V333.661L142.867 320.493V301.745L146.49 314.926Z" fill="black"/>
<path d="M463.691 189.563C463.646 188.737 463.407 187.932 462.994 187.215C462.581 186.497 462.006 185.887 461.314 185.432L426.894 165.566C425.623 164.803 424.517 165.426 424.517 166.951V200.215C424.561 201.042 424.798 201.847 425.211 202.565C425.624 203.282 426.201 203.893 426.894 204.345L441.308 212.658L445.858 231.075C445.843 231.413 445.962 231.742 446.19 231.991C446.418 232.24 446.735 232.389 447.072 232.404C447.409 232.419 447.738 232.3 447.987 232.072C448.237 231.844 448.385 231.527 448.4 231.19L452.569 219.153L461.378 224.237C462.649 225 463.754 224.377 463.754 222.865L463.691 189.563Z" fill="#0D6EFD"/>
<path opacity="0.5" d="M463.691 189.563C463.646 188.737 463.407 187.932 462.994 187.215C462.581 186.497 462.006 185.887 461.314 185.432L426.894 165.566C425.623 164.803 424.517 165.426 424.517 166.951V200.215C424.561 201.042 424.798 201.847 425.211 202.565C425.624 203.282 426.201 203.893 426.894 204.345L441.308 212.658L445.858 231.075C445.843 231.413 445.962 231.742 446.19 231.991C446.418 232.24 446.735 232.389 447.072 232.404C447.409 232.419 447.738 232.3 447.987 232.072C448.237 231.844 448.385 231.527 448.4 231.19L452.569 219.153L461.378 224.237C462.649 225 463.754 224.377 463.754 222.865L463.691 189.563Z" fill="white"/>
<path d="M437.558 180.717C438.261 181.116 438.91 181.603 439.49 182.166C440.009 182.671 440.473 183.229 440.876 183.831C441.225 184.364 441.51 184.935 441.727 185.534C441.906 186.043 442.021 186.573 442.07 187.11C442.07 187.657 442.134 188.229 442.134 188.826C442.134 189.423 442.134 189.97 442.07 190.478C442.039 190.888 441.922 191.286 441.727 191.648C441.537 191.982 441.235 192.238 440.876 192.372C440.422 192.497 439.944 192.497 439.49 192.372C438.806 192.214 438.153 191.943 437.558 191.571C436.852 191.176 436.199 190.694 435.613 190.135C435.093 189.645 434.632 189.094 434.241 188.496C433.576 187.513 433.162 186.383 433.033 185.204C433.033 184.657 433.033 184.085 433.033 183.488C433.033 182.89 433.033 182.344 433.033 181.848C433.072 181.434 433.193 181.033 433.389 180.666C433.573 180.327 433.877 180.069 434.241 179.941C434.685 179.801 435.158 179.779 435.613 179.878C436.306 180.041 436.964 180.325 437.558 180.717ZM449.709 188.457C449.839 188.362 449.993 188.305 450.154 188.292C450.385 188.307 450.608 188.382 450.802 188.508L452.62 189.563C452.828 189.682 453.01 189.842 453.154 190.034C453.273 190.196 453.339 190.391 453.344 190.593C453.349 190.635 453.349 190.678 453.344 190.72C453.322 190.767 453.292 190.81 453.255 190.847L438.283 201.905C438.152 202.002 437.999 202.063 437.838 202.083C437.605 202.068 437.38 201.989 437.189 201.854L435.372 200.812C435.161 200.692 434.978 200.527 434.838 200.329C434.716 200.172 434.645 199.981 434.635 199.782C434.625 199.736 434.625 199.689 434.635 199.643C434.652 199.593 434.683 199.549 434.724 199.515L449.709 188.457ZM439.16 188.457C439.178 188.271 439.178 188.084 439.16 187.898V186.259C439.177 186.06 439.177 185.86 439.16 185.661C439.118 185.215 438.984 184.782 438.766 184.39C438.473 183.914 438.055 183.527 437.558 183.272C436.973 182.928 436.567 182.839 436.287 182.992C436.167 183.089 436.069 183.21 436.001 183.349C435.933 183.487 435.896 183.639 435.893 183.793C435.893 183.907 435.893 184.085 435.893 184.352C435.893 184.619 435.893 184.873 435.893 185.153C435.893 185.432 435.893 185.712 435.893 185.979C435.893 186.246 435.893 186.449 435.893 186.589C435.941 187.034 436.074 187.466 436.287 187.86C436.599 188.344 437.039 188.731 437.558 188.979C438.143 189.322 438.55 189.411 438.766 189.258C438.881 189.166 438.974 189.05 439.04 188.919C439.106 188.787 439.142 188.643 439.147 188.496L439.16 188.457ZM450.675 198.893C451.382 199.292 452.035 199.779 452.62 200.342C453.135 200.846 453.595 201.405 453.993 202.007C454.352 202.534 454.638 203.107 454.844 203.71C455.021 204.22 455.14 204.749 455.2 205.286C455.2 205.833 455.2 206.405 455.2 207.002C455.2 207.599 455.2 208.146 455.2 208.654C455.161 209.064 455.04 209.462 454.844 209.824C454.757 209.995 454.637 210.147 454.491 210.271C454.345 210.396 454.176 210.49 453.993 210.548C453.545 210.679 453.068 210.679 452.62 210.548C451.932 210.39 451.275 210.119 450.675 209.747C449.973 209.352 449.324 208.869 448.743 208.311C448.222 207.818 447.757 207.268 447.358 206.671C447.006 206.14 446.72 205.568 446.506 204.968C446.329 204.459 446.213 203.929 446.163 203.392C446.163 202.833 446.163 202.261 446.163 201.664C446.163 201.066 446.163 200.52 446.163 200.024C446.192 199.61 446.309 199.207 446.506 198.842C446.693 198.505 446.996 198.248 447.358 198.117C447.813 198.005 448.288 198.005 448.743 198.117C449.43 198.273 450.084 198.548 450.675 198.931V198.893ZM452.289 206.671C452.3 206.485 452.3 206.298 452.289 206.112V204.511C452.289 204.256 452.289 204.053 452.289 203.926C452.236 203.482 452.103 203.051 451.895 202.655C451.58 202.175 451.141 201.789 450.624 201.536C450.04 201.193 449.633 201.104 449.417 201.257C449.297 201.353 449.199 201.475 449.131 201.613C449.063 201.752 449.026 201.903 449.023 202.058C449.01 202.244 449.01 202.431 449.023 202.617C449.023 202.871 449.023 203.138 449.023 203.418C449.023 203.697 449.023 203.977 449.023 204.256C449.011 204.455 449.011 204.655 449.023 204.854C449.062 205.301 449.197 205.734 449.417 206.125C449.706 206.604 450.125 206.992 450.624 207.243C451.209 207.587 451.616 207.676 451.895 207.523C452.015 207.423 452.111 207.299 452.179 207.158C452.247 207.018 452.285 206.865 452.289 206.71V206.671Z" fill="#F8F9FA"/>
<path d="M314.788 62.027C314.742 61.2007 314.503 60.3967 314.09 59.6793C313.678 58.962 313.103 58.3513 312.411 57.8961L277.992 38.0424C276.721 37.2798 275.615 37.8899 275.615 39.4152V72.6783C275.659 73.5068 275.897 74.3133 276.31 75.033C276.723 75.7527 277.299 76.3654 277.992 76.8219L292.405 85.1345L296.956 103.514C297.005 103.798 297.151 104.058 297.368 104.249C297.585 104.44 297.86 104.551 298.149 104.564C298.438 104.578 298.722 104.492 298.956 104.322C299.19 104.152 299.358 103.907 299.434 103.628L303.603 91.5914L312.411 96.6755C313.682 97.4382 314.788 96.8281 314.788 95.3028V62.027Z" fill="#0D6EFD"/>
<path opacity="0.5" d="M314.788 62.027C314.742 61.2007 314.503 60.3967 314.09 59.6793C313.678 58.962 313.103 58.3513 312.411 57.8961L277.992 38.0424C276.721 37.2798 275.615 37.8899 275.615 39.4152V72.6783C275.659 73.5068 275.897 74.3133 276.31 75.033C276.723 75.7527 277.299 76.3654 277.992 76.8219L292.405 85.1345L296.956 103.514C297.005 103.798 297.151 104.058 297.368 104.249C297.585 104.44 297.86 104.551 298.149 104.564C298.438 104.578 298.722 104.492 298.956 104.322C299.19 104.152 299.358 103.907 299.434 103.628L303.603 91.5914L312.411 96.6755C313.682 97.4382 314.788 96.8281 314.788 95.3028V62.027Z" fill="white"/>
<path d="M288.656 53.2313C289.358 53.6309 290.007 54.1178 290.588 54.6803C291.104 55.1881 291.568 55.7459 291.973 56.3454C292.327 56.8753 292.613 57.4475 292.825 58.0486C293.004 58.5578 293.119 59.0872 293.168 59.6247C293.168 60.1712 293.232 60.7432 293.232 61.3406C293.232 61.938 293.231 62.4845 293.168 62.9929C293.139 63.4068 293.022 63.8098 292.825 64.175C292.64 64.5108 292.336 64.7649 291.973 64.8868C291.526 65.0327 291.047 65.0547 290.588 64.9503C289.902 64.792 289.248 64.5168 288.656 64.1369C287.947 63.7458 287.293 63.2629 286.711 62.7006C286.19 62.2103 285.729 61.6599 285.338 61.061C284.979 60.5339 284.693 59.9611 284.487 59.3578C284.31 58.8472 284.191 58.3186 284.131 57.7817C284.131 57.2224 284.131 56.6504 284.131 56.0658C284.131 55.4811 284.131 54.9091 284.131 54.4134C284.17 53.9997 284.291 53.5979 284.487 53.2313C284.671 52.8924 284.974 52.634 285.338 52.5068C285.789 52.3944 286.26 52.3944 286.711 52.5068C287.396 52.6343 288.054 52.8794 288.656 53.2313ZM300.807 60.972C300.94 60.8821 301.092 60.8255 301.252 60.8067C301.485 60.822 301.709 60.9012 301.9 61.0355L303.718 62.0778C303.923 62.1999 304.104 62.3594 304.251 62.5481C304.369 62.7115 304.435 62.9062 304.442 63.1073C304.447 63.1538 304.447 63.2007 304.442 63.2472C304.417 63.2924 304.387 63.335 304.353 63.3742L289.38 74.4323C289.247 74.5221 289.095 74.5788 288.935 74.5975C288.702 74.5823 288.478 74.5031 288.287 74.3688L286.47 73.3265C286.259 73.2114 286.076 73.0507 285.936 72.8562C285.818 72.6928 285.752 72.4981 285.745 72.297C285.733 72.2554 285.733 72.2114 285.745 72.1698C285.762 72.1164 285.793 72.0683 285.834 72.03L300.807 60.972ZM290.257 60.972C290.276 60.786 290.276 60.5987 290.257 60.4127V58.7731C290.274 58.5786 290.274 58.3829 290.257 58.1884C290.22 57.7411 290.085 57.3074 289.863 56.9174C289.575 56.4345 289.156 56.0425 288.656 55.7861C288.071 55.4557 287.664 55.354 287.385 55.5192C287.267 55.618 287.171 55.7402 287.103 55.8781C287.036 56.016 286.997 56.1664 286.991 56.32C286.991 56.4216 286.991 56.6123 286.991 56.8665C286.991 57.1207 286.991 57.3876 286.991 57.68C286.991 57.9723 286.991 58.2392 286.991 58.5062C286.991 58.7731 286.991 58.9764 286.991 59.1035C287.04 59.5484 287.174 59.9797 287.385 60.3746C287.696 60.8581 288.137 61.2454 288.656 61.4931C289.24 61.8363 289.647 61.9253 289.863 61.7727C289.981 61.682 290.077 61.5668 290.145 61.435C290.213 61.3033 290.251 61.1583 290.257 61.0101V60.972ZM301.773 71.4072C302.483 71.8069 303.136 72.2983 303.718 72.8689C304.236 73.3664 304.696 73.9207 305.09 74.5213C305.447 75.0497 305.733 75.6222 305.942 76.2245C306.117 76.7354 306.237 77.2639 306.298 77.8006C306.298 78.3598 306.298 78.9318 306.298 79.5292C306.298 80.1266 306.298 80.6731 306.298 81.1688C306.259 81.5825 306.138 81.9843 305.942 82.3509C305.758 82.6899 305.454 82.9482 305.09 83.0754C304.641 83.2013 304.167 83.2013 303.718 83.0754C303.03 82.917 302.373 82.6464 301.773 82.2746C301.076 81.8718 300.427 81.3899 299.841 80.8384C299.322 80.3376 298.858 79.7838 298.455 79.186C298.106 78.6533 297.821 78.0817 297.604 77.4828C297.425 76.9736 297.31 76.4442 297.261 75.9067C297.261 75.3602 297.197 74.7882 297.197 74.1908C297.197 73.5934 297.197 73.0469 297.261 72.5385C297.291 72.1248 297.408 71.7222 297.604 71.3564C297.795 71.0259 298.096 70.7737 298.455 70.6446C298.903 70.5004 299.38 70.4741 299.841 70.5683C300.531 70.7471 301.184 71.0438 301.773 71.4454V71.4072ZM303.387 79.186C303.397 78.9997 303.397 78.813 303.387 78.6267V77.0252C303.387 76.771 303.387 76.5676 303.387 76.4405C303.343 75.9945 303.209 75.5621 302.993 75.1695C302.682 74.6822 302.242 74.2906 301.722 74.0383C301.137 73.7078 300.731 73.6061 300.515 73.7714C300.392 73.8661 300.293 73.9875 300.225 74.1262C300.157 74.265 300.121 74.4175 300.121 74.5721C300.107 74.754 300.107 74.9368 300.121 75.1187C300.121 75.3729 300.121 75.6398 300.121 75.9321C300.121 76.2245 300.121 76.4914 300.121 76.7583C300.108 76.9572 300.108 77.1568 300.121 77.3557C300.158 77.803 300.292 78.2367 300.515 78.6267C300.803 79.1096 301.221 79.5015 301.722 79.758C302.307 80.0884 302.73 80.1774 302.993 80.0249C303.113 79.9283 303.211 79.8066 303.279 79.6682C303.347 79.5299 303.384 79.3783 303.387 79.2241V79.186Z" fill="#F8F9FA"/>
<path d="M78.4764 188.534C78.5216 187.707 78.7602 186.903 79.173 186.185C79.5858 185.468 80.1614 184.857 80.8532 184.403L115.273 164.536C116.544 163.774 117.65 164.397 117.65 165.922V199.185C117.607 200.012 117.369 200.817 116.956 201.535C116.543 202.253 115.966 202.863 115.273 203.316L100.859 211.628L96.3091 230.02C96.3243 230.358 96.2049 230.687 95.9773 230.936C95.7496 231.185 95.4323 231.334 95.0952 231.349C94.7581 231.364 94.4288 231.244 94.1797 231.017C93.9306 230.789 93.7822 230.472 93.767 230.135L89.6107 218.098L80.8024 223.182C79.5313 223.945 78.4255 223.322 78.4255 221.81L78.4764 188.534Z" fill="#0D6EFD"/>
<g opacity="0.5">
<path d="M78.4764 188.534C78.5216 187.707 78.7602 186.903 79.173 186.185C79.5858 185.468 80.1614 184.857 80.8532 184.403L115.273 164.536C116.544 163.774 117.65 164.397 117.65 165.922V199.185C117.607 200.012 117.369 200.817 116.956 201.535C116.543 202.253 115.966 202.863 115.273 203.316L100.859 211.628L96.3091 230.02C96.3243 230.358 96.2049 230.687 95.9773 230.936C95.7496 231.185 95.4323 231.334 95.0952 231.349C94.7581 231.364 94.4288 231.244 94.1797 231.017C93.9306 230.789 93.7822 230.472 93.767 230.135L89.6107 218.098L80.8024 223.182C79.5313 223.945 78.4255 223.322 78.4255 221.81L78.4764 188.534Z" fill="white"/>
</g>
<path d="M90.5003 186.055C91.1883 185.627 91.9452 185.322 92.7374 185.153C93.2693 185.045 93.8196 185.071 94.3389 185.229C94.7567 185.38 95.1048 185.678 95.3176 186.068C95.5449 186.488 95.6793 186.952 95.7116 187.428C95.7625 188.013 95.7879 188.648 95.7879 189.334C95.7879 190.021 95.7625 190.682 95.7116 191.317C95.656 191.941 95.5236 192.556 95.3176 193.148C95.074 193.838 94.7452 194.496 94.3389 195.105C93.879 195.799 93.3417 196.439 92.7374 197.011C92.0619 197.655 91.3107 198.214 90.5003 198.677C89.804 199.103 89.0448 199.416 88.2506 199.604C87.7245 199.722 87.1769 199.7 86.6618 199.541C86.244 199.39 85.8959 199.092 85.6831 198.702C85.4517 198.283 85.313 197.819 85.2764 197.342C85.2764 196.757 85.2764 196.071 85.2764 195.435C85.2764 194.8 85.2764 194.088 85.2764 193.453C85.3372 192.828 85.4737 192.214 85.6831 191.622C85.9214 190.929 86.2505 190.271 86.6618 189.665C87.124 188.972 87.6564 188.329 88.2506 187.746C88.9289 187.093 89.6844 186.525 90.5003 186.055ZM104.482 178.797C104.626 178.519 104.796 178.256 104.99 178.009C105.204 177.765 105.458 177.559 105.74 177.399L107.85 176.128C108.025 175.999 108.245 175.944 108.46 175.976C108.613 175.976 108.689 176.141 108.689 176.344C108.698 176.412 108.698 176.48 108.689 176.548L108.587 176.815L91.2757 209.582C91.1315 209.856 90.9613 210.116 90.7673 210.357C90.5561 210.604 90.3021 210.811 90.0174 210.968L87.9201 212.239C87.7398 212.367 87.5168 212.422 87.2973 212.391C87.1448 212.391 87.0685 212.226 87.0685 212.023C87.0596 211.955 87.0596 211.887 87.0685 211.819L87.1702 211.552L104.482 178.797ZM92.3561 192.944C92.3734 192.716 92.3734 192.486 92.3561 192.258V190.364C92.3745 190.148 92.3745 189.931 92.3561 189.716C92.3491 189.538 92.3048 189.363 92.226 189.203C92.1471 189.043 92.0356 188.902 91.8985 188.788C91.6443 188.61 91.174 188.788 90.5003 189.106C89.9804 189.368 89.5366 189.759 89.2116 190.242C88.8867 190.725 88.6914 191.283 88.6446 191.864C88.626 192.096 88.626 192.33 88.6446 192.563C88.6446 192.868 88.6446 193.186 88.6446 193.516C88.6446 193.847 88.6446 194.152 88.6446 194.457C88.6247 194.668 88.6247 194.881 88.6446 195.092C88.6446 195.272 88.6859 195.449 88.7652 195.61C88.8446 195.77 88.9599 195.911 89.1022 196.02C89.3564 196.198 89.814 196.084 90.5003 195.702C91.0739 195.414 91.5575 194.975 91.8985 194.431C92.1516 193.972 92.3074 193.466 92.3561 192.944ZM105.664 189.639C106.358 189.211 107.118 188.902 107.914 188.724C108.441 188.617 108.987 188.643 109.502 188.801C109.92 188.951 110.268 189.25 110.481 189.639C110.712 190.058 110.851 190.522 110.888 190.999C110.888 191.584 110.951 192.271 110.951 192.906C110.951 193.542 110.951 194.253 110.888 194.889C110.828 195.513 110.691 196.128 110.481 196.719C110.241 197.415 109.912 198.077 109.502 198.689C108.529 200.159 107.222 201.378 105.689 202.248C104.999 202.677 104.243 202.99 103.452 203.176C102.922 203.3 102.369 203.278 101.851 203.112C101.431 202.966 101.081 202.667 100.872 202.274C100.643 201.854 100.509 201.39 100.478 200.914C100.478 200.342 100.402 199.643 100.402 199.02C100.402 198.397 100.402 197.66 100.478 197.024C100.533 196.404 100.665 195.794 100.872 195.207C101.116 194.512 101.444 193.85 101.851 193.237C102.314 192.541 102.851 191.897 103.452 191.317C104.11 190.65 104.854 190.073 105.664 189.601V189.639ZM107.52 196.478C107.537 196.249 107.537 196.02 107.52 195.791V193.91C107.538 193.694 107.538 193.478 107.52 193.262C107.521 193.082 107.48 192.905 107.4 192.744C107.321 192.583 107.205 192.443 107.062 192.334C106.808 192.156 106.35 192.258 105.664 192.652C105.093 192.943 104.61 193.382 104.266 193.923C104.02 194.376 103.865 194.872 103.808 195.385C103.796 195.613 103.796 195.842 103.808 196.071C103.808 196.389 103.808 196.706 103.808 197.024C103.808 197.342 103.808 197.672 103.808 197.965C103.795 198.176 103.795 198.389 103.808 198.6C103.815 198.778 103.859 198.953 103.938 199.113C104.017 199.273 104.129 199.414 104.266 199.528C104.52 199.706 104.99 199.604 105.664 199.21C106.238 198.923 106.721 198.483 107.062 197.939C107.324 197.48 107.48 196.967 107.52 196.44V196.478Z" fill="#F8F9FA"/>
</svg>
