<svg width="16" height="17" viewBox="0 0 16 17" fill="none" xmlns="http://www.w3.org/2000/svg">
<path d="M13.2619 11.9099C12.6262 11.9099 12.0573 12.1502 11.6223 12.5268L5.65804 9.20222C5.69987 9.01796 5.73333 8.83371 5.73333 8.64145C5.73333 8.44919 5.69987 8.26493 5.65804 8.08068L11.5554 4.78818C12.0071 5.18873 12.6011 5.43707 13.2619 5.43707C14.6505 5.43707 15.7714 4.3636 15.7714 3.03378C15.7714 1.70396 14.6505 0.630493 13.2619 0.630493C11.8733 0.630493 10.7524 1.70396 10.7524 3.03378C10.7524 3.22604 10.7858 3.41029 10.8277 3.59455L4.93028 6.88705C4.47856 6.4865 3.88464 6.23816 3.2238 6.23816C1.8352 6.23816 0.714279 7.31163 0.714279 8.64145C0.714279 9.97127 1.8352 11.0447 3.2238 11.0447C3.88464 11.0447 4.47856 10.7964 4.93028 10.3958L10.8862 13.7284C10.8444 13.8966 10.8193 14.0729 10.8193 14.2491C10.8193 15.5389 11.9151 16.5883 13.2619 16.5883C14.6087 16.5883 15.7045 15.5389 15.7045 14.2491C15.7045 12.9594 14.6087 11.9099 13.2619 11.9099Z" fill="#212529"/>
</svg>
